{"glyphs":{"0":{"ha":980,"x_min":-23,"x_max":1004,"o":"m 208 488 q 416 95 130 95 q 774 488 696 95 q 572 875 852 875 q 208 488 286 875 m 75 484 q 593 977 174 977 q 906 484 1004 977 q 396 -7 808 -7 q 75 484 -23 -7 z "},"1":{"ha":437,"x_min":73,"x_max":394,"o":"m 73 0 l 243 848 l 141 848 l 153 909 l 394 977 l 199 0 l 73 0 z "},"2":{"ha":777,"x_min":-56,"x_max":804,"o":"m -56 0 l -35 102 q 622 692 578 473 q 428 875 659 875 q 132 800 279 875 l 153 909 q 448 977 299 977 q 747 692 804 977 q 144 102 697 441 l 629 102 l 609 0 l -56 0 z "},"3":{"ha":780,"x_min":-22,"x_max":787,"o":"m 159 936 q 438 977 302 977 q 734 712 787 977 q 563 492 703 552 q 646 271 679 434 q 241 -7 591 -7 q -22 34 106 -7 l 0 142 q 262 95 126 95 q 521 271 486 95 q 384 441 555 441 l 161 441 l 182 543 l 402 543 q 609 712 575 543 q 418 875 642 875 q 137 827 282 875 l 159 936 z "},"4":{"ha":827,"x_min":-9,"x_max":736,"o":"m 580 0 l 454 0 l 500 231 l -9 231 l 11 332 l 528 970 l 660 970 l 142 332 l 521 332 l 590 677 l 715 677 l 646 332 l 736 281 l 726 231 l 626 231 l 580 0 z "},"5":{"ha":797,"x_min":-5,"x_max":789,"o":"m 203 970 l 789 970 l 768 868 l 290 868 l 214 568 q 383 583 296 583 q 694 305 749 583 q 252 -7 631 -7 q -5 34 123 -7 l 17 142 q 279 95 143 95 q 568 305 526 95 q 363 481 604 481 q 79 454 210 481 l 203 970 z "},"6":{"ha":854,"x_min":-30,"x_max":822,"o":"m 46 373 q 618 999 121 750 l 665 913 q 252 588 396 793 q 473 624 348 624 q 761 319 822 624 q 328 -7 696 -7 q 46 373 -30 -7 m 165 377 q 354 95 109 95 q 638 319 593 95 q 447 522 679 522 q 207 490 302 522 q 165 377 180 449 z "},"7":{"ha":739,"x_min":47,"x_max":786,"o":"m 142 970 l 786 970 l 766 868 l 184 0 l 47 0 l 643 868 l 121 868 l 142 970 z "},"8":{"ha":841,"x_min":-30,"x_max":846,"o":"m 29 288 q 216 505 59 439 q 145 731 114 576 q 520 979 195 979 q 796 731 846 979 q 631 505 765 576 q 734 288 764 439 q 323 -7 675 -7 q 29 288 -30 -7 m 439 556 q 668 718 635 556 q 494 875 699 875 q 268 718 299 875 q 439 556 235 556 m 347 95 q 608 283 570 95 q 410 454 642 454 q 154 283 188 454 q 347 95 116 95 z "},"9":{"ha":854,"x_min":39,"x_max":892,"o":"m 816 592 q 244 -34 741 215 l 197 52 q 610 377 466 172 q 387 334 513 334 q 101 646 39 334 q 534 972 166 972 q 816 592 892 972 m 696 588 q 508 870 753 870 q 224 646 269 870 q 415 443 183 443 q 655 475 560 443 q 696 588 682 516 z "}," ":{"ha":339,"x_min":0,"x_max":0,"o":""},"!":{"ha":329,"x_min":5,"x_max":325,"o":"m 325 970 l 181 251 l 56 251 l 199 970 l 325 970 m 156 125 l 131 0 l 5 0 l 31 125 l 156 125 z "},"\"":{"ha":512,"x_min":127,"x_max":542,"o":"m 542 970 l 463 675 l 378 675 l 416 970 l 542 970 m 291 970 l 212 675 l 127 675 l 165 970 l 291 970 z "},"#":{"ha":1284,"x_min":18,"x_max":1259,"o":"m 567 594 l 455 338 l 711 338 l 823 594 l 567 594 m 176 -3 l 284 233 l 18 233 l 60 338 l 332 338 l 444 594 l 172 594 l 213 699 l 492 699 l 614 966 l 736 966 l 614 699 l 871 699 l 994 970 l 1116 970 l 994 699 l 1259 699 l 1218 594 l 945 594 l 834 338 l 1106 338 l 1065 233 l 785 233 l 677 -3 l 555 -3 l 663 233 l 407 233 l 298 -3 l 176 -3 z "},"$":{"ha":712,"x_min":31,"x_max":682,"o":"m 390 840 l 416 970 l 534 970 l 508 838 q 682 807 597 831 l 661 699 q 416 739 543 739 q 218 637 238 739 q 311 543 199 543 l 412 543 q 614 332 656 543 q 368 134 581 162 l 340 0 l 222 0 l 248 130 q 31 163 136 133 l 53 271 q 298 231 170 231 q 489 332 469 231 q 389 427 508 427 l 288 427 q 99 637 57 427 q 390 840 136 825 z "},"%":{"ha":964,"x_min":-28,"x_max":994,"o":"m 111 0 l -28 0 l 855 970 l 994 970 l 111 0 m 220 802 q 300 702 200 702 q 418 802 398 702 q 340 899 437 899 q 220 802 239 899 m 132 800 q 355 977 167 977 q 506 800 541 977 q 285 625 471 625 q 132 800 96 625 m 548 170 q 629 71 528 71 q 746 170 726 71 q 668 268 766 268 q 548 170 568 268 m 460 169 q 684 345 495 345 q 834 169 869 345 q 613 -7 799 -7 q 460 169 425 -7 z "},"&":{"ha":865,"x_min":-29,"x_max":877,"o":"m 113 709 q 511 970 165 970 q 749 936 637 970 l 728 834 q 500 868 616 868 q 239 712 271 868 q 378 543 205 543 l 642 543 l 661 639 l 703 639 l 753 543 l 877 543 l 857 441 l 747 441 l 725 332 q 307 -2 658 -2 q 24 267 -29 -2 q 201 493 58 435 q 113 709 81 551 m 359 441 q 151 271 185 441 q 321 102 117 102 q 600 334 553 102 l 621 441 l 359 441 z "},"'":{"ha":261,"x_min":127,"x_max":291,"o":"m 291 970 l 212 675 l 127 675 l 165 970 l 291 970 z "},"(":{"ha":397,"x_min":-19,"x_max":427,"o":"m 427 970 q 168 356 229 663 q 181 -258 106 49 l 56 -258 q 43 356 -19 49 q 301 970 104 663 l 427 970 z "},")":{"ha":397,"x_min":-80,"x_max":366,"o":"m 291 970 q 304 356 366 663 q 45 -258 242 49 l -80 -258 q 178 356 117 49 q 165 970 240 663 l 291 970 z "},"*":{"ha":549,"x_min":127,"x_max":542,"o":"m 320 970 l 426 970 l 374 812 l 530 881 l 542 781 l 382 752 l 467 637 l 370 574 l 321 713 l 218 575 l 145 635 l 278 751 l 127 780 l 180 882 l 309 812 l 320 970 z "},"+":{"ha":644,"x_min":33,"x_max":562,"o":"m 256 407 l 297 610 l 399 610 l 358 407 l 562 407 l 541 305 l 338 305 l 297 102 l 195 102 l 236 305 l 33 305 l 53 407 l 256 407 z "},",":{"ha":261,"x_min":-113,"x_max":173,"o":"m 173 125 l 12 -170 l -113 -170 l 47 125 l 173 125 z "},"-":{"ha":475,"x_min":33,"x_max":392,"o":"m 392 407 l 372 305 l 33 305 l 53 407 l 392 407 z "},".":{"ha":261,"x_min":-28,"x_max":122,"o":"m 122 125 l 97 0 l -28 0 l -3 125 l 122 125 z "},"/":{"ha":665,"x_min":-79,"x_max":745,"o":"m 60 0 l -79 0 l 606 970 l 745 970 l 60 0 z "},":":{"ha":295,"x_min":5,"x_max":273,"o":"m 273 712 l 248 587 l 123 587 l 148 712 l 273 712 m 156 125 l 131 0 l 5 0 l 31 125 l 156 125 z "},";":{"ha":363,"x_min":-62,"x_max":341,"o":"m 341 712 l 316 587 l 191 587 l 216 712 l 341 712 m 224 125 l 63 -170 l -62 -170 l 98 125 l 224 125 z "},"<":{"ha":746,"x_min":33,"x_max":718,"o":"m 33 305 l 53 407 l 718 678 l 697 576 l 149 353 l 609 136 l 589 34 l 33 305 z "},"=":{"ha":644,"x_min":12,"x_max":582,"o":"m 541 305 l 521 203 l 12 203 l 33 305 l 541 305 m 582 509 l 562 407 l 53 407 l 73 509 l 582 509 z "},">":{"ha":746,"x_min":-22,"x_max":663,"o":"m -22 34 l -1 136 l 546 353 l 87 576 l 107 678 l 663 407 l 643 305 l -22 34 z "},"?":{"ha":756,"x_min":73,"x_max":786,"o":"m 224 125 l 199 0 l 73 0 l 98 125 l 224 125 m 159 936 q 437 970 308 970 q 733 705 786 970 q 343 441 680 441 l 287 441 l 249 251 l 123 251 l 182 543 l 361 543 q 608 705 575 543 q 416 868 640 868 q 138 834 288 868 l 159 936 z "},"@":{"ha":1458,"x_min":-46,"x_max":1455,"o":"m 913 591 q 785 608 880 608 q 506 348 557 608 q 598 109 458 109 q 852 281 743 109 l 913 591 m 937 80 q 996 0 921 0 q 1208 366 1135 0 q 817 875 1310 875 q 204 366 306 875 q 564 -156 100 -156 l 544 -258 q 79 366 -46 -258 q 827 977 201 977 q 1333 366 1455 977 q 970 -102 1240 -102 q 811 77 775 -102 l 828 163 q 555 0 712 0 q 382 347 313 0 q 811 712 455 712 q 1057 683 956 712 l 937 80 z "},"A":{"ha":998,"x_min":-79,"x_max":885,"o":"m 58 0 l -79 0 l 526 970 l 665 970 l 885 0 l 753 0 l 688 305 l 368 305 l 422 407 l 667 407 l 574 846 l 58 0 z "},"B":{"ha":902,"x_min":19,"x_max":903,"o":"m 19 0 l 213 970 l 627 970 q 858 744 903 970 q 631 507 825 578 q 779 287 816 471 q 418 0 722 0 l 19 0 m 431 102 q 640 278 605 102 q 442 450 675 450 l 388 450 l 404 532 q 722 732 690 569 q 595 868 749 868 l 318 868 l 165 102 l 431 102 z "},"C":{"ha":939,"x_min":-30,"x_max":939,"o":"m 758 34 q 479 -7 625 -7 q 71 498 -30 -7 q 675 977 167 977 q 939 936 821 977 l 917 827 q 669 875 801 875 q 197 498 272 875 q 513 95 116 95 q 780 142 645 95 l 758 34 z "},"D":{"ha":1017,"x_min":19,"x_max":1047,"o":"m 392 102 q 830 511 748 102 q 545 868 901 868 l 318 868 l 165 102 l 392 102 m 19 0 l 213 970 l 566 970 q 956 511 1047 970 q 372 0 853 0 l 19 0 z "},"E":{"ha":834,"x_min":19,"x_max":847,"o":"m 847 970 l 827 868 l 318 868 l 253 543 l 738 543 l 718 441 l 233 441 l 165 102 l 684 102 l 663 0 l 19 0 l 213 970 l 847 970 z "},"F":{"ha":783,"x_min":19,"x_max":847,"o":"m 847 970 l 827 868 l 318 868 l 253 543 l 738 543 l 718 441 l 233 441 l 144 0 l 19 0 l 213 970 l 847 970 z "},"G":{"ha":939,"x_min":-30,"x_max":939,"o":"m 759 38 q 497 -7 633 -7 q 71 498 -30 -7 q 675 977 167 977 q 939 936 821 977 l 917 827 q 669 875 801 875 q 197 498 272 875 q 507 95 116 95 q 648 111 569 95 l 714 441 l 840 441 l 759 38 z "},"H":{"ha":1055,"x_min":19,"x_max":1037,"o":"m 19 0 l 213 970 l 338 970 l 253 543 l 826 543 l 911 970 l 1037 970 l 843 0 l 718 0 l 806 441 l 233 441 l 144 0 l 19 0 z "},"I":{"ha":397,"x_min":39,"x_max":359,"o":"m 359 970 l 165 0 l 39 0 l 233 970 l 359 970 z "},"J":{"ha":468,"x_min":-79,"x_max":444,"o":"m 444 970 l 305 279 q -79 0 250 0 l -59 102 q 180 279 144 102 l 318 970 l 444 970 z "},"K":{"ha":973,"x_min":19,"x_max":1007,"o":"m 338 970 l 144 0 l 19 0 l 213 970 l 338 970 m 1007 970 l 471 508 l 857 0 l 689 0 l 348 473 l 363 549 l 842 970 l 1007 970 z "},"L":{"ha":782,"x_min":19,"x_max":672,"o":"m 338 970 l 165 102 l 672 102 l 652 0 l 19 0 l 213 970 l 338 970 z "},"M":{"ha":1248,"x_min":19,"x_max":1230,"o":"m 19 0 l 213 970 l 372 970 l 566 161 l 1078 970 l 1230 970 l 1036 0 l 924 0 l 1081 782 l 580 0 l 481 0 l 288 782 l 131 0 l 19 0 z "},"N":{"ha":1068,"x_min":19,"x_max":1050,"o":"m 19 0 l 213 970 l 338 970 l 773 177 l 932 970 l 1050 970 l 857 0 l 731 0 l 298 806 l 138 0 l 19 0 z "},"O":{"ha":1129,"x_min":-16,"x_max":1147,"o":"m 215 488 q 491 95 136 95 q 917 488 838 95 q 647 875 994 875 q 215 488 292 875 m 82 484 q 667 977 180 977 q 1048 484 1147 977 q 471 -7 950 -7 q 82 484 -16 -7 z "},"P":{"ha":857,"x_min":19,"x_max":903,"o":"m 19 0 l 213 970 l 606 970 q 851 710 903 970 q 376 365 795 427 l 372 471 q 717 705 679 515 q 574 866 749 866 l 317 866 l 144 0 l 19 0 z "},"Q":{"ha":1129,"x_min":-10,"x_max":1147,"o":"m 491 95 q 917 488 838 95 q 647 875 994 875 q 215 488 292 875 q 491 95 136 95 m 407 -5 q 82 484 -10 24 q 667 977 180 977 q 1048 484 1147 977 q 530 -4 957 27 q 722 -163 548 -161 q 855 -142 797 -163 l 835 -244 q 709 -264 777 -264 q 407 -5 408 -264 z "},"R":{"ha":885,"x_min":19,"x_max":903,"o":"m 19 0 l 213 970 l 627 970 q 857 737 903 970 q 530 444 819 548 l 772 0 l 620 0 l 399 436 l 415 518 q 722 732 688 562 q 594 866 749 866 l 317 866 l 144 0 l 19 0 z "},"S":{"ha":875,"x_min":12,"x_max":864,"o":"m 12 34 l 35 149 q 354 95 177 95 q 641 278 604 95 q 488 434 672 434 l 363 434 q 111 699 58 434 q 557 977 167 977 q 864 936 726 977 l 841 821 q 536 875 706 875 q 237 699 272 875 q 385 543 205 543 l 509 543 q 766 278 819 543 q 334 -7 709 -7 q 12 34 157 -7 z "},"T":{"ha":804,"x_min":111,"x_max":867,"o":"m 867 970 l 847 868 l 542 868 l 368 0 l 243 0 l 416 868 l 111 868 l 132 970 l 867 970 z "},"U":{"ha":1024,"x_min":11,"x_max":1013,"o":"m 87 374 l 206 970 l 332 970 l 212 374 q 435 95 157 95 q 768 374 713 95 l 888 970 l 1013 970 l 894 374 q 414 -7 818 -7 q 87 374 11 -7 z "},"V":{"ha":998,"x_min":115,"x_max":1079,"o":"m 1079 970 l 473 0 l 334 0 l 115 970 l 240 970 l 427 130 l 942 970 l 1079 970 z "},"W":{"ha":1289,"x_min":97,"x_max":1352,"o":"m 132 970 l 253 970 l 220 126 l 663 970 l 789 970 l 913 126 l 1236 970 l 1352 970 l 976 0 l 805 0 l 694 812 l 266 0 l 97 0 l 132 970 z "},"X":{"ha":956,"x_min":-79,"x_max":1030,"o":"m 399 485 l 115 970 l 260 970 l 488 582 l 871 970 l 1030 970 l 552 485 l 836 0 l 690 0 l 463 388 l 80 0 l -79 0 l 399 485 z "},"Y":{"ha":882,"x_min":115,"x_max":962,"o":"m 115 970 l 249 970 l 427 463 l 812 970 l 962 970 l 466 339 l 398 0 l 273 0 l 340 339 l 115 970 z "},"Z":{"ha":902,"x_min":-12,"x_max":915,"o":"m 915 970 l 895 868 l 160 102 l 728 102 l 707 0 l -12 0 l 9 102 l 748 868 l 176 868 l 196 970 l 915 970 z "},"[":{"ha":441,"x_min":-46,"x_max":505,"o":"m 505 970 l 484 868 l 304 868 l 100 -156 l 279 -156 l 259 -258 l -46 -258 l 199 970 l 505 970 z "},"\\":{"ha":658,"x_min":115,"x_max":545,"o":"m 115 970 l 247 970 l 545 0 l 412 0 l 115 970 z "},"]":{"ha":441,"x_min":-114,"x_max":437,"o":"m 437 970 l 191 -258 l -114 -258 l -94 -156 l 86 -156 l 291 868 l 111 868 l 132 970 l 437 970 z "},"^":{"ha":712,"x_min":33,"x_max":677,"o":"m 403 970 l 505 970 l 677 475 l 575 475 l 434 884 l 134 475 l 33 475 l 403 970 z "},"_":{"ha":712,"x_min":-100,"x_max":599,"o":"m 599 0 l 578 -102 l -100 -102 l -79 0 l 599 0 z "},"`":{"ha":409,"x_min":165,"x_max":406,"o":"m 406 808 l 295 808 l 165 970 l 328 970 l 406 808 z "},"a":{"ha":778,"x_min":-28,"x_max":716,"o":"m 572 591 q 444 608 538 608 q 165 348 216 608 q 257 109 117 109 q 511 281 402 109 l 572 591 m 580 0 l 468 0 l 488 170 q 214 0 374 0 q 41 347 -28 0 q 470 712 114 712 q 716 683 614 712 l 580 0 z "},"b":{"ha":779,"x_min":12,"x_max":757,"o":"m 156 124 q 275 104 186 104 q 568 382 512 104 q 471 604 612 604 q 218 431 326 604 l 156 124 m 199 970 l 325 970 l 239 543 q 514 712 354 712 q 692 384 757 712 q 260 0 614 0 q 12 29 106 0 l 199 970 z "},"c":{"ha":654,"x_min":-28,"x_max":639,"o":"m 518 88 q 270 0 412 0 q 44 363 -28 0 q 453 712 114 712 q 639 692 555 712 l 618 590 q 426 610 534 610 q 170 363 219 610 q 297 102 117 102 q 538 190 433 102 l 518 88 z "},"d":{"ha":778,"x_min":-28,"x_max":774,"o":"m 572 591 q 444 608 538 608 q 165 348 216 608 q 257 109 117 109 q 511 281 402 109 l 572 591 m 580 0 l 468 0 l 488 170 q 214 0 374 0 q 41 347 -28 0 q 470 712 114 712 q 595 706 537 712 l 648 970 l 774 970 l 580 0 z "},"e":{"ha":736,"x_min":-28,"x_max":721,"o":"m 441 712 q 680 509 721 712 q 387 313 641 313 l 159 313 q 318 102 117 102 q 585 190 473 102 l 565 88 q 298 0 453 0 q 44 364 -28 0 q 441 712 114 712 m 180 418 l 408 418 q 555 511 536 418 q 421 612 575 612 q 180 418 231 612 z "},"f":{"ha":469,"x_min":-119,"x_max":646,"o":"m 273 712 l 494 712 l 473 610 l 253 610 l 142 54 q -28 -270 98 -161 l -119 -199 q 16 54 -16 -107 l 155 747 q 486 1005 206 1005 q 646 978 573 1005 l 625 876 q 465 903 557 903 q 281 752 311 903 l 273 712 z "},"g":{"ha":778,"x_min":-28,"x_max":716,"o":"m 572 591 q 444 608 538 608 q 165 348 216 608 q 257 109 117 109 q 511 281 402 109 l 572 591 m 580 0 q 201 -258 528 -258 q -26 -224 69 -258 l -5 -122 q 222 -156 92 -156 q 454 0 423 -156 l 488 170 q 214 0 374 0 q 41 347 -28 0 q 470 712 114 712 q 716 683 614 712 l 580 0 z "},"h":{"ha":817,"x_min":5,"x_max":762,"o":"m 5 0 l 199 970 l 325 970 l 232 506 q 563 712 364 712 q 715 481 762 712 l 619 0 l 494 0 l 590 483 q 491 608 615 608 q 208 382 349 608 l 131 0 l 5 0 z "},"i":{"ha":356,"x_min":19,"x_max":338,"o":"m 287 712 l 144 0 l 19 0 l 161 712 l 287 712 m 338 970 l 315 851 l 189 851 l 213 970 l 338 970 z "},"j":{"ha":356,"x_min":-106,"x_max":338,"o":"m 287 712 l 155 54 q -15 -270 112 -161 l -106 -199 q 30 54 -3 -107 l 161 712 l 287 712 m 338 970 l 315 851 l 189 851 l 213 970 l 338 970 z "},"k":{"ha":798,"x_min":5,"x_max":779,"o":"m 5 0 l 199 970 l 325 970 l 235 521 q 560 712 377 712 q 739 513 779 712 q 480 271 709 364 l 661 0 l 502 0 l 348 261 l 361 324 q 612 507 587 379 q 524 610 633 610 q 213 411 366 610 l 131 0 l 5 0 z "},"l":{"ha":342,"x_min":12,"x_max":332,"o":"m 332 970 l 138 0 l 12 0 l 206 970 l 332 970 z "},"m":{"ha":1224,"x_min":5,"x_max":1168,"o":"m 5 0 l 148 712 l 260 712 l 231 500 q 545 712 356 712 q 673 506 714 712 q 991 712 804 712 q 1122 483 1168 712 l 1026 0 l 901 0 l 997 483 q 922 608 1022 608 q 655 382 787 608 l 578 0 l 453 0 l 549 483 q 475 608 574 608 q 208 382 336 608 l 131 0 l 5 0 z "},"n":{"ha":817,"x_min":5,"x_max":762,"o":"m 5 0 l 148 712 l 260 712 l 229 492 q 563 712 364 712 q 715 481 762 712 l 619 0 l 494 0 l 590 483 q 491 608 615 608 q 208 382 349 608 l 131 0 l 5 0 z "},"o":{"ha":787,"x_min":-27,"x_max":765,"o":"m 169 359 q 317 102 117 102 q 569 359 517 102 q 419 610 619 610 q 169 359 219 610 m 43 356 q 439 712 114 712 q 694 356 765 712 q 297 1 623 1 q 43 356 -27 1 z "},"p":{"ha":779,"x_min":-46,"x_max":757,"o":"m 239 543 q 514 712 354 712 q 691 384 757 712 q 260 0 614 0 q 132 6 190 0 l 79 -258 l -46 -258 l 148 712 l 260 712 l 239 543 m 217 431 l 156 124 q 275 104 186 104 q 568 382 512 104 q 471 604 612 604 q 217 431 326 604 z "},"q":{"ha":778,"x_min":-28,"x_max":716,"o":"m 572 591 q 444 608 538 608 q 165 348 216 608 q 257 109 117 109 q 511 281 402 109 l 572 591 m 528 -258 l 403 -258 l 488 170 q 214 0 374 0 q 41 347 -28 0 q 470 712 114 712 q 716 683 614 712 l 528 -258 z "},"r":{"ha":481,"x_min":5,"x_max":514,"o":"m 5 0 l 148 712 l 260 712 l 228 486 q 514 712 349 712 l 492 601 q 208 382 330 601 l 131 0 l 5 0 z "},"s":{"ha":692,"x_min":-8,"x_max":650,"o":"m -8 34 l 14 142 q 259 102 131 102 q 450 203 429 102 q 350 298 469 298 l 255 298 q 66 509 24 298 q 404 712 107 712 q 650 678 531 712 l 628 570 q 383 610 511 610 q 185 509 205 610 q 278 414 166 414 l 373 414 q 575 203 617 414 q 239 0 534 0 q -8 34 111 0 z "},"t":{"ha":458,"x_min":5,"x_max":446,"o":"m 171 827 l 250 827 l 254 712 l 446 712 l 426 610 l 253 610 l 171 201 q 237 102 151 102 l 324 102 l 304 0 l 184 0 q 44 192 5 0 l 171 827 z "},"u":{"ha":817,"x_min":5,"x_max":762,"o":"m 762 712 l 619 0 l 507 0 l 538 220 q 204 0 403 0 q 52 231 5 0 l 148 712 l 273 712 l 177 229 q 276 104 152 104 q 559 330 418 104 l 636 712 l 762 712 z "},"v":{"ha":678,"x_min":46,"x_max":724,"o":"m 46 712 l 182 712 l 274 154 l 589 712 l 724 712 l 292 0 l 176 0 l 46 712 z "},"w":{"ha":1136,"x_min":-15,"x_max":1070,"o":"m 195 712 l 321 712 q 185 373 222 559 q 277 102 131 102 q 484 373 429 102 l 551 712 l 677 712 l 609 373 q 707 102 555 102 q 907 373 853 102 q 907 712 945 559 l 1033 712 q 1033 373 1070 559 q 687 0 958 0 q 505 176 528 0 q 256 0 416 0 q 60 373 -15 0 q 195 712 97 559 z "},"x":{"ha":712,"x_min":-79,"x_max":741,"o":"m 258 363 l 63 712 l 202 712 l 351 433 l 595 712 l 741 712 l 404 349 l 599 0 l 460 0 l 311 272 l 66 0 l -79 0 l 258 363 z "},"y":{"ha":817,"x_min":5,"x_max":762,"o":"m 538 220 q 204 0 403 0 q 52 231 5 0 l 148 712 l 273 712 l 177 229 q 276 104 152 104 q 559 330 418 104 l 636 712 l 762 712 l 619 0 q 240 -258 568 -258 q 14 -224 109 -258 l 34 -122 q 262 -156 131 -156 q 494 0 463 -156 l 538 220 z "},"z":{"ha":678,"x_min":-28,"x_max":656,"o":"m 127 712 l 656 712 l 636 610 l 135 95 l 526 95 l 507 0 l -28 0 l -9 95 l 497 610 l 107 610 l 127 712 z "},"{":{"ha":458,"x_min":33,"x_max":522,"o":"m 522 970 q 368 646 410 850 q 168 356 321 407 q 253 66 300 305 q 276 -258 212 -138 l 151 -258 q 127 66 86 -138 q 33 305 175 305 l 53 407 q 243 646 195 407 q 396 970 284 850 l 522 970 z "},"|":{"ha":329,"x_min":-46,"x_max":325,"o":"m 325 970 l 79 -258 l -46 -258 l 199 970 l 325 970 z "},"}":{"ha":458,"x_min":-114,"x_max":375,"o":"m 257 970 q 280 646 321 850 q 375 407 233 407 l 355 305 q 165 66 212 305 q 12 -258 123 -138 l -114 -258 q 39 66 -2 -138 q 239 356 87 305 q 155 646 107 407 q 132 970 196 850 l 257 970 z "},"~":{"ha":644,"x_min":30,"x_max":564,"o":"m 50 393 q 168 435 98 435 q 300 407 227 435 q 435 380 374 380 q 564 420 509 380 l 544 319 q 426 278 496 278 q 294 305 368 278 q 159 333 220 333 q 30 292 85 333 l 50 393 z "},"Ä":{"ha":998,"x_min":-79,"x_max":885,"o":"m 58 0 l -79 0 l 526 970 l 665 970 l 885 0 l 753 0 l 688 305 l 368 305 l 422 407 l 667 407 l 574 846 l 58 0 m 826 1227 l 803 1112 l 677 1112 l 701 1227 l 826 1227 m 575 1227 l 552 1112 l 427 1112 l 450 1227 l 575 1227 z "},"Å":{"ha":998,"x_min":-79,"x_max":885,"o":"m 606 1010 q 715 1103 697 1010 q 643 1194 734 1194 q 531 1103 549 1194 q 606 1010 513 1010 m 58 0 l -79 0 l 526 970 l 528 970 q 470 1102 449 997 q 653 1244 498 1244 q 777 1102 805 1244 q 665 969 755 996 l 885 0 l 753 0 l 688 305 l 368 305 l 422 407 l 667 407 l 574 846 l 58 0 z "},"Ç":{"ha":939,"x_min":-20,"x_max":939,"o":"m 381 -1 q 71 498 -20 45 q 675 977 167 977 q 939 936 821 977 l 917 827 q 669 875 801 875 q 197 498 272 875 q 513 95 116 95 q 780 142 645 95 l 758 34 q 479 -7 625 -7 l 468 -7 l 434 -52 q 556 -169 579 -52 q 369 -286 532 -286 q 229 -252 296 -286 l 244 -179 q 384 -213 311 -213 q 466 -169 457 -213 q 418 -125 475 -125 l 294 -125 l 381 -1 z "},"É":{"ha":834,"x_min":19,"x_max":847,"o":"m 847 970 l 827 868 l 318 868 l 253 543 l 738 543 l 718 441 l 233 441 l 165 102 l 684 102 l 663 0 l 19 0 l 213 970 l 847 970 m 596 1227 l 758 1227 l 564 1065 l 452 1065 l 596 1227 z "},"Ñ":{"ha":1068,"x_min":19,"x_max":1050,"o":"m 19 0 l 213 970 l 338 970 l 773 177 l 932 970 l 1050 970 l 857 0 l 731 0 l 298 806 l 138 0 l 19 0 m 497 1196 q 591 1227 544 1227 q 663 1210 627 1227 q 736 1192 699 1192 q 842 1223 787 1192 l 821 1122 q 727 1090 774 1090 q 656 1108 692 1090 q 582 1126 620 1126 q 477 1095 531 1126 l 497 1196 z "},"Ö":{"ha":1129,"x_min":-16,"x_max":1147,"o":"m 215 488 q 491 95 136 95 q 917 488 838 95 q 647 875 994 875 q 215 488 292 875 m 82 484 q 667 977 180 977 q 1048 484 1147 977 q 471 -7 950 -7 q 82 484 -16 -7 m 918 1227 l 895 1112 l 770 1112 l 793 1227 l 918 1227 m 667 1227 l 644 1112 l 519 1112 l 542 1227 l 667 1227 z "},"Ü":{"ha":1024,"x_min":11,"x_max":1013,"o":"m 87 374 l 206 970 l 332 970 l 212 374 q 435 95 157 95 q 768 374 713 95 l 888 970 l 1013 970 l 894 374 q 414 -7 818 -7 q 87 374 11 -7 m 846 1227 l 823 1112 l 697 1112 l 720 1227 l 846 1227 m 595 1227 l 572 1112 l 446 1112 l 469 1227 l 595 1227 z "},"á":{"ha":778,"x_min":-28,"x_max":716,"o":"m 572 591 q 444 608 538 608 q 165 348 216 608 q 257 109 117 109 q 511 281 402 109 l 572 591 m 580 0 l 468 0 l 488 170 q 214 0 374 0 q 41 347 -28 0 q 470 712 114 712 q 716 683 614 712 l 580 0 m 524 970 l 686 970 l 491 808 l 380 808 l 524 970 z "},"à":{"ha":778,"x_min":-28,"x_max":716,"o":"m 572 591 q 444 608 538 608 q 165 348 216 608 q 257 109 117 109 q 511 281 402 109 l 572 591 m 580 0 l 468 0 l 488 170 q 214 0 374 0 q 41 347 -28 0 q 470 712 114 712 q 716 683 614 712 l 580 0 m 562 808 l 451 808 l 321 970 l 484 970 l 562 808 z "},"â":{"ha":778,"x_min":-28,"x_max":716,"o":"m 572 591 q 444 608 538 608 q 165 348 216 608 q 257 109 117 109 q 511 281 402 109 l 572 591 m 580 0 l 468 0 l 488 170 q 214 0 374 0 q 41 347 -28 0 q 470 712 114 712 q 716 683 614 712 l 580 0 m 453 970 l 555 970 l 638 793 l 536 793 l 490 902 l 401 793 l 299 793 l 453 970 z "},"ä":{"ha":778,"x_min":-28,"x_max":716,"o":"m 572 591 q 444 608 538 608 q 165 348 216 608 q 257 109 117 109 q 511 281 402 109 l 572 591 m 580 0 l 468 0 l 488 170 q 214 0 374 0 q 41 347 -28 0 q 470 712 114 712 q 716 683 614 712 l 580 0 m 692 970 l 669 854 l 543 854 l 566 970 l 692 970 m 441 970 l 418 854 l 292 854 l 315 970 l 441 970 z "},"ã":{"ha":778,"x_min":-28,"x_max":716,"o":"m 572 591 q 444 608 538 608 q 165 348 216 608 q 257 109 117 109 q 511 281 402 109 l 572 591 m 580 0 l 468 0 l 488 170 q 214 0 374 0 q 41 347 -28 0 q 470 712 114 712 q 716 683 614 712 l 580 0 m 328 939 q 422 970 375 970 q 494 952 458 970 q 568 935 530 935 q 673 966 618 935 l 652 864 q 558 833 606 833 q 487 850 523 833 q 413 868 451 868 q 308 837 362 868 l 328 939 z "},"å":{"ha":778,"x_min":-28,"x_max":716,"o":"m 572 591 q 444 608 538 608 q 165 348 216 608 q 257 109 117 109 q 511 281 402 109 l 572 591 m 580 0 l 468 0 l 488 170 q 214 0 374 0 q 41 347 -28 0 q 470 712 114 712 q 716 683 614 712 l 580 0 m 402 924 q 477 831 384 831 q 587 924 568 831 q 514 1015 605 1015 q 402 924 420 1015 m 341 923 q 524 1065 370 1065 q 648 923 676 1065 q 467 781 619 781 q 341 923 313 781 z "},"ç":{"ha":654,"x_min":-22,"x_max":639,"o":"m 220 3 q 44 363 -22 33 q 453 712 114 712 q 639 692 555 712 l 618 590 q 426 610 534 610 q 170 363 219 610 q 297 102 117 102 q 538 190 433 102 l 518 88 q 309 2 427 12 l 270 -52 q 392 -169 415 -52 q 205 -286 368 -286 q 65 -252 132 -286 l 80 -179 q 220 -213 146 -213 q 302 -169 293 -213 q 254 -125 310 -125 l 130 -125 l 220 3 z "},"é":{"ha":736,"x_min":-28,"x_max":721,"o":"m 441 712 q 680 509 721 712 q 387 313 641 313 l 159 313 q 318 102 117 102 q 585 190 473 102 l 565 88 q 298 0 453 0 q 44 364 -28 0 q 441 712 114 712 m 180 418 l 408 418 q 555 511 536 418 q 421 612 575 612 q 180 418 231 612 m 496 970 l 658 970 l 463 808 l 352 808 l 496 970 z "},"è":{"ha":736,"x_min":-28,"x_max":721,"o":"m 441 712 q 680 509 721 712 q 387 313 641 313 l 159 313 q 318 102 117 102 q 585 190 473 102 l 565 88 q 298 0 453 0 q 44 364 -28 0 q 441 712 114 712 m 180 418 l 408 418 q 555 511 536 418 q 421 612 575 612 q 180 418 231 612 m 562 808 l 450 808 l 321 970 l 483 970 l 562 808 z "},"ê":{"ha":736,"x_min":-28,"x_max":721,"o":"m 441 712 q 680 509 721 712 q 387 313 641 313 l 159 313 q 318 102 117 102 q 585 190 473 102 l 565 88 q 298 0 453 0 q 44 364 -28 0 q 441 712 114 712 m 180 418 l 408 418 q 555 511 536 418 q 421 612 575 612 q 180 418 231 612 m 432 970 l 534 970 l 617 793 l 515 793 l 469 902 l 380 793 l 278 793 l 432 970 z "},"ë":{"ha":736,"x_min":-28,"x_max":721,"o":"m 441 712 q 680 509 721 712 q 387 313 641 313 l 159 313 q 318 102 117 102 q 585 190 473 102 l 565 88 q 298 0 453 0 q 44 364 -28 0 q 441 712 114 712 m 180 418 l 408 418 q 555 511 536 418 q 421 612 575 612 q 180 418 231 612 m 664 970 l 641 854 l 515 854 l 538 970 l 664 970 m 413 970 l 390 854 l 264 854 l 288 970 l 413 970 z "},"í":{"ha":356,"x_min":19,"x_max":458,"o":"m 287 712 l 144 0 l 19 0 l 161 712 l 287 712 m 296 970 l 458 970 l 263 808 l 152 808 l 296 970 z "},"ì":{"ha":356,"x_min":19,"x_max":334,"o":"m 287 712 l 144 0 l 19 0 l 161 712 l 287 712 m 334 808 l 223 808 l 94 970 l 256 970 l 334 808 z "},"î":{"ha":356,"x_min":20,"x_max":410,"o":"m 288 712 l 145 0 l 20 0 l 162 712 l 288 712 m 225 970 l 327 970 l 410 793 l 309 793 l 262 902 l 173 793 l 71 793 l 225 970 z "},"ï":{"ha":356,"x_min":19,"x_max":464,"o":"m 287 712 l 144 0 l 19 0 l 161 712 l 287 712 m 464 970 l 441 854 l 315 854 l 338 970 l 464 970 m 213 970 l 190 854 l 64 854 l 87 970 l 213 970 z "},"ñ":{"ha":817,"x_min":5,"x_max":762,"o":"m 5 0 l 148 712 l 260 712 l 229 492 q 563 712 364 712 q 715 481 762 712 l 619 0 l 494 0 l 590 483 q 491 608 615 608 q 208 382 349 608 l 131 0 l 5 0 m 338 939 q 432 970 385 970 q 503 952 467 970 q 577 935 539 935 q 682 966 628 935 l 662 864 q 568 833 615 833 q 496 850 532 833 q 422 868 460 868 q 317 837 372 868 l 338 939 z "},"ó":{"ha":787,"x_min":-27,"x_max":765,"o":"m 169 359 q 317 102 117 102 q 569 359 517 102 q 419 610 619 610 q 169 359 219 610 m 43 356 q 439 712 114 712 q 694 356 765 712 q 297 1 623 1 q 43 356 -27 1 m 511 970 l 673 970 l 479 808 l 368 808 l 511 970 z "},"ò":{"ha":787,"x_min":-27,"x_max":765,"o":"m 169 359 q 317 102 117 102 q 569 359 517 102 q 419 610 619 610 q 169 359 219 610 m 43 356 q 439 712 114 712 q 694 356 765 712 q 297 1 623 1 q 43 356 -27 1 m 549 808 l 438 808 l 309 970 l 471 970 l 549 808 z "},"ô":{"ha":787,"x_min":-27,"x_max":765,"o":"m 169 359 q 317 102 117 102 q 569 359 517 102 q 419 610 619 610 q 169 359 219 610 m 43 356 q 439 712 114 712 q 694 356 765 712 q 297 1 623 1 q 43 356 -27 1 m 440 970 l 542 970 l 625 793 l 524 793 l 477 902 l 388 793 l 286 793 l 440 970 z "},"ö":{"ha":787,"x_min":-27,"x_max":765,"o":"m 169 359 q 317 102 117 102 q 569 359 517 102 q 419 610 619 610 q 169 359 219 610 m 43 356 q 439 712 114 712 q 694 356 765 712 q 297 1 623 1 q 43 356 -27 1 m 680 970 l 656 854 l 531 854 l 554 970 l 680 970 m 429 970 l 406 854 l 280 854 l 303 970 l 429 970 z "},"õ":{"ha":787,"x_min":-27,"x_max":765,"o":"m 169 359 q 317 102 117 102 q 569 359 517 102 q 419 610 619 610 q 169 359 219 610 m 43 356 q 439 712 114 712 q 694 356 765 712 q 297 1 623 1 q 43 356 -27 1 m 315 939 q 410 970 362 970 q 481 952 445 970 q 555 935 517 935 q 660 966 606 935 l 640 864 q 545 833 593 833 q 474 850 510 833 q 400 868 438 868 q 295 837 349 868 l 315 939 z "},"ú":{"ha":817,"x_min":5,"x_max":762,"o":"m 762 712 l 619 0 l 507 0 l 538 220 q 204 0 403 0 q 52 231 5 0 l 148 712 l 273 712 l 177 229 q 276 104 152 104 q 559 330 418 104 l 636 712 l 762 712 m 526 970 l 688 970 l 494 808 l 382 808 l 526 970 z "},"ù":{"ha":817,"x_min":5,"x_max":762,"o":"m 762 712 l 619 0 l 507 0 l 538 220 q 204 0 403 0 q 52 231 5 0 l 148 712 l 273 712 l 177 229 q 276 104 152 104 q 559 330 418 104 l 636 712 l 762 712 m 565 808 l 454 808 l 324 970 l 486 970 l 565 808 z "},"û":{"ha":817,"x_min":5,"x_max":762,"o":"m 762 712 l 619 0 l 507 0 l 538 220 q 204 0 403 0 q 52 231 5 0 l 148 712 l 273 712 l 177 229 q 276 104 152 104 q 559 330 418 104 l 636 712 l 762 712 m 456 970 l 557 970 l 641 793 l 539 793 l 493 902 l 404 793 l 302 793 l 456 970 z "},"ü":{"ha":817,"x_min":5,"x_max":762,"o":"m 762 712 l 619 0 l 507 0 l 538 220 q 204 0 403 0 q 52 231 5 0 l 148 712 l 273 712 l 177 229 q 276 104 152 104 q 559 330 418 104 l 636 712 l 762 712 m 694 970 l 671 854 l 546 854 l 569 970 l 694 970 m 444 970 l 420 854 l 295 854 l 318 970 l 444 970 z "},"†":{"ha":709,"x_min":60,"x_max":721,"o":"m 515 970 l 463 712 l 721 712 l 701 610 l 443 610 l 269 -258 l 144 -258 l 317 610 l 60 610 l 80 712 l 338 712 l 389 970 l 515 970 z "},"°":{"ha":510,"x_min":95,"x_max":540,"o":"m 218 795 q 299 695 199 695 q 416 795 397 695 q 338 892 436 892 q 218 795 238 892 m 130 793 q 354 970 165 970 q 505 793 540 970 q 283 618 469 618 q 130 793 95 618 z "},"¢":{"ha":665,"x_min":1,"x_max":664,"o":"m 406 836 l 433 970 l 551 970 l 525 838 q 664 819 600 835 l 644 718 q 451 738 559 738 q 195 490 244 738 q 322 229 142 229 q 564 317 458 229 l 543 216 q 385 137 473 157 l 357 0 l 239 0 l 264 129 q 69 490 1 147 q 406 836 132 800 z "},"£":{"ha":825,"x_min":-33,"x_max":843,"o":"m -12 83 q 154 280 124 134 q 141 477 170 359 q 132 696 113 595 q 567 977 189 977 q 843 909 750 977 l 819 787 q 542 875 729 875 q 267 698 302 875 q 266 543 247 600 l 521 543 l 500 441 l 281 441 q 282 282 296 350 q 207 121 264 189 q 241 123 222 123 q 406 94 303 123 q 486 83 445 83 q 691 149 584 83 l 668 34 q 464 -23 575 -23 q 332 -4 400 -23 q 169 18 248 18 q -33 -20 65 18 l -12 83 z "},"§":{"ha":712,"x_min":11,"x_max":703,"o":"m 11 27 l 33 136 q 271 95 143 95 q 462 197 441 95 q 347 285 479 285 l 273 285 q 69 488 28 285 q 178 621 88 582 q 126 773 106 675 q 477 977 167 977 q 703 943 591 977 l 681 834 q 456 875 570 875 q 238 773 258 875 q 353 685 220 685 l 427 685 q 645 484 685 685 q 536 347 627 395 q 587 197 608 303 q 251 -7 547 -7 q 11 27 123 -7 m 187 486 q 300 385 168 385 l 374 385 q 525 477 507 385 q 414 584 546 584 l 339 584 q 187 486 207 584 z "},"•":{"ha":427,"x_min":41,"x_max":391,"o":"m 70 492 q 245 637 99 637 q 361 492 391 637 q 186 346 332 346 q 70 492 41 346 z "},"¶":{"ha":646,"x_min":-23,"x_max":744,"o":"m 146 -294 l 277 365 q 38 669 -23 365 q 398 970 98 970 l 744 970 l 732 909 l 630 909 l 390 -294 l 322 -294 l 562 909 l 454 909 l 214 -294 l 146 -294 z "},"ß":{"ha":808,"x_min":-119,"x_max":805,"o":"m 135 650 q 513 968 199 968 q 754 712 805 968 l 743 654 q 504 493 522 585 q 608 383 492 431 q 698 205 724 334 q 390 0 657 0 l 267 0 l 287 102 l 412 102 q 566 205 545 102 q 469 315 579 273 q 385 491 358 357 q 625 712 413 632 q 488 866 655 866 q 260 648 304 866 l 142 54 q -28 -270 98 -161 l -119 -199 q 16 54 -16 -107 l 135 650 z "},"®":{"ha":789,"x_min":96,"x_max":787,"o":"m 281 513 l 353 876 l 509 876 q 595 789 612 876 q 472 684 581 718 l 563 513 l 501 513 l 418 676 l 424 707 q 545 787 532 724 q 496 838 554 838 l 392 838 l 328 513 l 281 513 m 194 695 q 387 450 145 450 q 680 695 631 450 q 486 945 730 945 q 194 695 244 945 m 144 694 q 494 983 202 983 q 730 694 787 983 q 380 412 673 412 q 144 694 96 412 z "},"©":{"ha":1211,"x_min":4,"x_max":1208,"o":"m 174 488 q 510 54 87 54 q 1039 488 952 54 q 696 916 1124 916 q 174 488 260 916 m 104 490 q 708 977 201 977 q 1111 490 1208 977 q 511 -7 1011 -7 q 104 490 4 -7 m 751 228 q 548 193 660 193 q 326 494 266 193 q 665 776 382 776 q 854 741 777 776 l 841 675 q 662 714 764 714 q 397 494 441 714 q 570 255 349 255 q 765 294 672 255 l 751 228 z "},"™":{"ha":1089,"x_min":190,"x_max":1085,"o":"m 546 970 l 536 922 l 393 922 l 311 513 l 252 513 l 334 922 l 190 922 l 199 970 l 546 970 m 515 513 l 606 970 l 681 970 l 773 589 l 1013 970 l 1085 970 l 994 513 l 941 513 l 1015 882 l 779 513 l 732 513 l 641 882 l 568 513 l 515 513 z "},"´":{"ha":409,"x_min":133,"x_max":439,"o":"m 277 970 l 439 970 l 244 808 l 133 808 l 277 970 z "},"¨":{"ha":512,"x_min":142,"x_max":542,"o":"m 542 970 l 519 854 l 393 854 l 416 970 l 542 970 m 291 970 l 268 854 l 142 854 l 165 970 l 291 970 z "},"Æ":{"ha":1305,"x_min":-79,"x_max":1305,"o":"m 543 407 l 562 305 l 250 305 l 58 0 l -79 0 l 526 970 l 1305 970 l 1284 868 l 682 868 l 760 543 l 1196 543 l 1175 441 l 786 441 l 871 102 l 1145 102 l 1124 0 l 760 0 l 572 840 l 305 407 l 543 407 z "},"Ø":{"ha":1102,"x_min":18,"x_max":1086,"o":"m 816 833 q 633 875 747 875 q 201 488 279 875 q 220 211 165 309 l 816 833 m 286 140 q 477 95 357 95 q 903 488 825 95 q 883 764 939 668 l 286 140 m 979 865 q 1035 484 1086 741 q 457 -7 937 -7 q 197 48 294 -7 l 151 0 l 18 0 l 122 109 q 68 484 18 231 q 654 977 167 977 q 903 925 808 977 l 946 970 l 1080 970 l 979 865 z "},"±":{"ha":644,"x_min":-28,"x_max":582,"o":"m 277 509 l 317 712 l 419 712 l 378 509 l 582 509 l 562 407 l 358 407 l 317 203 l 216 203 l 256 407 l 53 407 l 73 509 l 277 509 m 500 102 l 480 0 l -28 0 l -8 102 l 500 102 z "},"¥":{"ha":848,"x_min":62,"x_max":911,"o":"m 132 970 l 266 970 l 427 545 l 761 970 l 911 970 l 523 495 l 735 495 l 715 393 l 460 393 l 445 318 l 700 318 l 680 216 l 425 216 l 381 0 l 256 0 l 299 216 l 62 216 l 83 318 l 319 318 l 334 393 l 98 393 l 118 495 l 313 495 l 132 970 z "},"µ":{"ha":817,"x_min":-46,"x_max":762,"o":"m 142 58 l 79 -258 l -46 -258 l 148 712 l 273 712 l 177 229 q 276 104 152 104 q 559 330 418 104 l 636 712 l 762 712 l 619 0 l 507 0 l 538 220 q 252 0 403 0 q 142 58 163 0 z "},"ª":{"ha":440,"x_min":94,"x_max":467,"o":"m 395 910 q 330 918 378 918 q 191 788 217 918 q 237 669 167 669 q 363 755 310 669 l 395 910 m 399 614 l 342 614 l 353 699 q 216 614 296 614 q 129 787 94 614 q 344 970 165 970 q 467 956 416 970 l 399 614 z "},"º":{"ha":461,"x_min":96,"x_max":491,"o":"m 193 793 q 267 665 168 665 q 393 793 368 665 q 318 920 418 920 q 193 793 218 920 m 130 792 q 328 970 165 970 q 455 792 491 970 q 257 614 420 614 q 130 792 96 614 z "},"æ":{"ha":1204,"x_min":-28,"x_max":1189,"o":"m 327 332 q 140 217 163 332 q 246 102 117 102 q 473 171 376 102 l 503 319 q 327 332 420 332 m 648 418 l 876 418 q 1023 511 1004 418 q 889 612 1043 612 q 648 418 699 612 m 536 96 q 226 0 375 0 q 14 215 -28 0 q 347 434 58 434 q 524 420 440 434 l 537 488 q 376 610 562 610 q 144 576 267 610 l 165 678 q 397 712 287 712 q 638 618 583 712 q 909 712 739 712 q 1148 509 1189 712 q 854 313 1109 313 l 627 313 q 786 102 585 102 q 1053 190 941 102 l 1033 88 q 766 0 921 0 q 536 96 598 0 z "},"ø":{"ha":785,"x_min":-42,"x_max":777,"o":"m 58 104 q 39 356 7 193 q 436 712 111 712 q 606 674 543 712 l 643 712 l 777 712 l 673 605 q 690 356 722 517 q 294 1 619 1 q 127 37 190 1 l 92 0 l -42 0 l 58 104 m 571 498 l 214 127 q 314 102 252 102 q 566 359 514 102 q 571 498 582 442 m 160 210 l 519 584 q 416 610 481 610 q 165 359 216 610 q 160 210 147 269 z "},"¿":{"ha":756,"x_min":-80,"x_max":633,"o":"m 482 587 l 507 712 l 633 712 l 608 587 l 482 587 m 547 -224 q 269 -258 398 -258 q -27 7 -80 -258 q 363 271 26 271 l 419 271 l 457 461 l 583 461 l 524 170 l 345 170 q 98 7 131 170 q 290 -156 66 -156 q 568 -122 418 -156 l 547 -224 z "},"¡":{"ha":329,"x_min":-46,"x_max":273,"o":"m -46 -258 l 98 461 l 223 461 l 79 -258 l -46 -258 m 123 587 l 148 712 l 273 712 l 248 587 l 123 587 z "},"¬":{"ha":736,"x_min":94,"x_max":714,"o":"m 114 712 l 714 712 l 660 441 l 558 441 l 592 610 l 94 610 l 114 712 z "},"ƒ":{"ha":710,"x_min":-114,"x_max":774,"o":"m 753 868 q 715 872 733 872 q 541 726 599 872 l 508 644 l 650 644 l 610 543 l 467 543 l 245 -14 q -70 -260 146 -260 q -114 -258 -92 -260 l -94 -156 q -55 -160 -73 -160 q 119 -14 61 -160 l 342 543 l 213 543 l 254 644 l 382 644 l 415 726 q 730 972 514 972 q 774 970 751 972 l 753 868 z "},"«":{"ha":684,"x_min":43,"x_max":676,"o":"m 313 356 l 539 610 l 676 610 l 450 356 l 574 102 l 437 102 l 313 356 m 43 356 l 269 610 l 406 610 l 180 356 l 304 102 l 167 102 l 43 356 z "},"»":{"ha":684,"x_min":-42,"x_max":591,"o":"m 95 102 l -42 102 l 184 356 l 60 610 l 197 610 l 321 356 l 95 102 m 366 102 l 229 102 l 454 356 l 330 610 l 467 610 l 591 356 l 366 102 z "},"…":{"ha":804,"x_min":-28,"x_max":665,"o":"m 122 125 l 97 0 l -28 0 l -3 125 l 122 125 m 393 125 l 368 0 l 243 0 l 268 125 l 393 125 m 665 125 l 640 0 l 514 0 l 539 125 l 665 125 z "}," ":{"ha":338,"x_min":0,"x_max":0,"o":""},"À":{"ha":998,"x_min":-79,"x_max":885,"o":"m 58 0 l -79 0 l 526 970 l 665 970 l 885 0 l 753 0 l 688 305 l 368 305 l 422 407 l 667 407 l 574 846 l 58 0 m 655 1065 l 544 1065 l 414 1227 l 576 1227 l 655 1065 z "},"Ã":{"ha":998,"x_min":-79,"x_max":885,"o":"m 58 0 l -79 0 l 526 970 l 665 970 l 885 0 l 753 0 l 688 305 l 368 305 l 422 407 l 667 407 l 574 846 l 58 0 m 448 1196 q 543 1227 495 1227 q 614 1210 578 1227 q 688 1192 650 1192 q 793 1223 739 1192 l 772 1122 q 678 1090 726 1090 q 607 1108 643 1090 q 533 1126 571 1126 q 428 1095 482 1126 l 448 1196 z "},"Õ":{"ha":1129,"x_min":-16,"x_max":1147,"o":"m 215 488 q 491 95 136 95 q 917 488 838 95 q 647 875 994 875 q 215 488 292 875 m 82 484 q 667 977 180 977 q 1048 484 1147 977 q 471 -7 950 -7 q 82 484 -16 -7 m 555 1196 q 649 1227 602 1227 q 720 1210 684 1227 q 794 1192 756 1192 q 899 1223 845 1192 l 879 1122 q 785 1090 832 1090 q 713 1108 749 1090 q 640 1126 677 1126 q 534 1095 589 1126 l 555 1196 z "},"Œ":{"ha":1502,"x_min":-28,"x_max":1505,"o":"m 201 488 q 479 102 124 102 q 903 488 826 102 q 632 868 979 868 q 201 488 277 868 m 68 484 q 652 970 165 970 l 1505 970 l 1485 868 l 959 868 q 1046 543 1071 768 l 1396 543 l 1375 441 l 1026 441 q 806 102 958 199 l 1341 102 l 1321 0 l 458 0 q 68 484 -28 0 z "},"œ":{"ha":1261,"x_min":-27,"x_max":1246,"o":"m 317 102 q 569 359 517 102 q 419 610 619 610 q 169 359 219 610 q 317 102 117 102 m 706 418 l 933 418 q 1081 511 1062 418 q 947 612 1101 612 q 706 418 757 612 m 582 141 q 297 1 474 1 q 43 356 -27 1 q 439 712 114 712 q 668 572 616 712 q 967 712 780 712 q 1206 509 1246 712 q 912 313 1166 313 l 685 313 q 844 102 643 102 q 1111 190 999 102 l 1090 88 q 823 0 979 0 q 582 141 621 0 z "},"–":{"ha":814,"x_min":33,"x_max":731,"o":"m 731 407 l 711 305 l 33 305 l 53 407 l 731 407 z "},"—":{"ha":1153,"x_min":33,"x_max":1070,"o":"m 1070 407 l 1050 305 l 33 305 l 53 407 l 1070 407 z "},"“":{"ha":529,"x_min":73,"x_max":610,"o":"m 610 970 l 449 675 l 323 675 l 484 970 l 610 970 m 359 970 l 198 675 l 73 675 l 233 970 l 359 970 z "},"”":{"ha":529,"x_min":73,"x_max":610,"o":"m 610 970 l 449 675 l 323 675 l 484 970 l 610 970 m 359 970 l 198 675 l 73 675 l 233 970 l 359 970 z "},"‘":{"ha":278,"x_min":73,"x_max":359,"o":"m 359 970 l 198 675 l 73 675 l 233 970 l 359 970 z "},"’":{"ha":295,"x_min":73,"x_max":359,"o":"m 359 970 l 198 675 l 73 675 l 233 970 l 359 970 z "},"÷":{"ha":668,"x_min":33,"x_max":585,"o":"m 585 407 l 565 305 l 33 305 l 53 407 l 585 407 m 341 203 l 321 102 l 195 102 l 216 203 l 341 203 m 422 610 l 402 509 l 277 509 l 297 610 l 422 610 z "},"ÿ":{"ha":817,"x_min":5,"x_max":762,"o":"m 538 220 q 204 0 403 0 q 52 231 5 0 l 148 712 l 273 712 l 177 229 q 276 104 152 104 q 559 330 418 104 l 636 712 l 762 712 l 619 0 q 240 -258 568 -258 q 14 -224 109 -258 l 34 -122 q 262 -156 131 -156 q 494 0 463 -156 l 538 220 m 694 970 l 671 854 l 546 854 l 569 970 l 694 970 m 444 970 l 420 854 l 295 854 l 318 970 l 444 970 z "},"Ÿ":{"ha":882,"x_min":115,"x_max":962,"o":"m 115 970 l 249 970 l 427 463 l 812 970 l 962 970 l 466 339 l 398 0 l 273 0 l 340 339 l 115 970 m 761 1227 l 738 1112 l 612 1112 l 635 1227 l 761 1227 m 510 1227 l 487 1112 l 361 1112 l 385 1227 l 510 1227 z "},"¤":{"ha":772,"x_min":-5,"x_max":728,"o":"m 153 513 l 91 594 l 180 670 l 248 588 q 421 634 330 634 q 565 588 505 634 l 668 670 l 728 594 l 631 513 q 639 356 659 456 q 562 199 621 262 l 632 117 l 543 41 l 472 125 q 306 84 391 84 q 149 125 222 84 l 54 41 l -5 117 l 90 199 q 83 356 66 269 q 153 513 102 449 m 194 359 q 327 192 161 192 q 526 359 493 192 q 393 524 559 524 q 194 359 227 524 z "},"‹":{"ha":414,"x_min":43,"x_max":406,"o":"m 43 356 l 269 610 l 406 610 l 180 356 l 304 102 l 167 102 l 43 356 z "},"›":{"ha":414,"x_min":-42,"x_max":321,"o":"m 95 102 l -42 102 l 184 356 l 60 610 l 197 610 l 321 356 l 95 102 z "},"‡":{"ha":709,"x_min":-62,"x_max":721,"o":"m 515 970 l 463 712 l 721 712 l 701 610 l 443 610 l 341 102 l 599 102 l 578 0 l 321 0 l 269 -258 l 144 -258 l 195 0 l -62 0 l -42 102 l 216 102 l 317 610 l 60 610 l 80 712 l 338 712 l 389 970 l 515 970 z "},"·":{"ha":305,"x_min":26,"x_max":229,"o":"m 43 356 q 144 441 60 441 q 212 356 229 441 q 111 271 195 271 q 43 356 26 271 z "},"‚":{"ha":278,"x_min":-113,"x_max":173,"o":"m 173 125 l 12 -170 l -113 -170 l 47 125 l 173 125 z "},"„":{"ha":529,"x_min":-113,"x_max":424,"o":"m 424 125 l 263 -170 l 138 -170 l 298 125 l 424 125 m 173 125 l 12 -170 l -113 -170 l 47 125 l 173 125 z "},"‰":{"ha":1429,"x_min":-28,"x_max":1334,"o":"m 111 0 l -28 0 l 855 970 l 994 970 l 111 0 m 220 802 q 300 702 200 702 q 418 802 398 702 q 340 899 437 899 q 220 802 239 899 m 132 800 q 355 977 167 977 q 506 800 541 977 q 285 625 471 625 q 132 800 96 625 m 1013 170 q 1093 71 993 71 q 1211 170 1191 71 q 1133 268 1230 268 q 1013 170 1032 268 m 924 169 q 1148 345 960 345 q 1299 169 1334 345 q 1078 -7 1263 -7 q 924 169 889 -7 m 548 170 q 629 71 528 71 q 746 170 726 71 q 668 268 766 268 q 548 170 568 268 m 460 169 q 684 345 495 345 q 834 169 869 345 q 613 -7 799 -7 q 460 169 425 -7 z "},"Â":{"ha":998,"x_min":-79,"x_max":885,"o":"m 58 0 l -79 0 l 526 970 l 665 970 l 885 0 l 753 0 l 688 305 l 368 305 l 422 407 l 667 407 l 574 846 l 58 0 m 580 1227 l 682 1227 l 765 1051 l 663 1051 l 617 1160 l 528 1051 l 426 1051 l 580 1227 z "},"Ê":{"ha":834,"x_min":19,"x_max":847,"o":"m 847 970 l 827 868 l 318 868 l 253 543 l 738 543 l 718 441 l 233 441 l 165 102 l 684 102 l 663 0 l 19 0 l 213 970 l 847 970 m 525 1227 l 627 1227 l 710 1051 l 608 1051 l 562 1160 l 473 1051 l 371 1051 l 525 1227 z "},"Á":{"ha":998,"x_min":-79,"x_max":885,"o":"m 58 0 l -79 0 l 526 970 l 665 970 l 885 0 l 753 0 l 688 305 l 368 305 l 422 407 l 667 407 l 574 846 l 58 0 m 685 1227 l 847 1227 l 652 1065 l 541 1065 l 685 1227 z "},"Ë":{"ha":834,"x_min":19,"x_max":847,"o":"m 847 970 l 827 868 l 318 868 l 253 543 l 738 543 l 718 441 l 233 441 l 165 102 l 684 102 l 663 0 l 19 0 l 213 970 l 847 970 m 758 1227 l 734 1112 l 609 1112 l 632 1227 l 758 1227 m 507 1227 l 484 1112 l 358 1112 l 381 1227 l 507 1227 z "},"È":{"ha":834,"x_min":19,"x_max":847,"o":"m 847 970 l 827 868 l 318 868 l 253 543 l 738 543 l 718 441 l 233 441 l 165 102 l 684 102 l 663 0 l 19 0 l 213 970 l 847 970 m 627 1065 l 516 1065 l 387 1227 l 549 1227 l 627 1065 z "},"Í":{"ha":397,"x_min":39,"x_max":546,"o":"m 359 970 l 165 0 l 39 0 l 233 970 l 359 970 m 384 1227 l 546 1227 l 351 1065 l 240 1065 l 384 1227 z "},"Î":{"ha":397,"x_min":40,"x_max":485,"o":"m 359 970 l 165 0 l 40 0 l 234 970 l 359 970 m 300 1227 l 401 1227 l 485 1051 l 383 1051 l 337 1160 l 248 1051 l 146 1051 l 300 1227 z "},"Ï":{"ha":397,"x_min":39,"x_max":538,"o":"m 359 970 l 165 0 l 39 0 l 233 970 l 359 970 m 538 1227 l 515 1112 l 390 1112 l 413 1227 l 538 1227 m 288 1227 l 264 1112 l 139 1112 l 162 1227 l 288 1227 z "},"Ì":{"ha":397,"x_min":39,"x_max":375,"o":"m 359 970 l 165 0 l 39 0 l 233 970 l 359 970 m 375 1065 l 264 1065 l 134 1227 l 296 1227 l 375 1065 z "},"Ó":{"ha":1129,"x_min":-16,"x_max":1147,"o":"m 215 488 q 491 95 136 95 q 917 488 838 95 q 647 875 994 875 q 215 488 292 875 m 82 484 q 667 977 180 977 q 1048 484 1147 977 q 471 -7 950 -7 q 82 484 -16 -7 m 736 1227 l 899 1227 l 704 1065 l 593 1065 l 736 1227 z "},"Ô":{"ha":1129,"x_min":-16,"x_max":1147,"o":"m 215 488 q 491 95 136 95 q 917 488 838 95 q 647 875 994 875 q 215 488 292 875 m 82 484 q 667 977 180 977 q 1048 484 1147 977 q 471 -7 950 -7 q 82 484 -16 -7 m 666 1227 l 768 1227 l 851 1051 l 749 1051 l 703 1160 l 614 1051 l 512 1051 l 666 1227 z "},"Ò":{"ha":1129,"x_min":-16,"x_max":1147,"o":"m 215 488 q 491 95 136 95 q 917 488 838 95 q 647 875 994 875 q 215 488 292 875 m 82 484 q 667 977 180 977 q 1048 484 1147 977 q 471 -7 950 -7 q 82 484 -16 -7 m 775 1065 l 664 1065 l 534 1227 l 696 1227 l 775 1065 z "},"Ú":{"ha":1024,"x_min":11,"x_max":1013,"o":"m 87 374 l 206 970 l 332 970 l 212 374 q 435 95 157 95 q 768 374 713 95 l 888 970 l 1013 970 l 894 374 q 414 -7 818 -7 q 87 374 11 -7 m 671 1227 l 833 1227 l 638 1065 l 527 1065 l 671 1227 z "},"Û":{"ha":1024,"x_min":11,"x_max":1013,"o":"m 87 374 l 206 970 l 332 970 l 212 374 q 435 95 157 95 q 768 374 713 95 l 888 970 l 1013 970 l 894 374 q 414 -7 818 -7 q 87 374 11 -7 m 600 1227 l 701 1227 l 785 1051 l 683 1051 l 637 1160 l 547 1051 l 446 1051 l 600 1227 z "},"Ù":{"ha":1024,"x_min":11,"x_max":1013,"o":"m 87 374 l 206 970 l 332 970 l 212 374 q 435 95 157 95 q 768 374 713 95 l 888 970 l 1013 970 l 894 374 q 414 -7 818 -7 q 87 374 11 -7 m 702 1065 l 591 1065 l 461 1227 l 623 1227 l 702 1065 z "},"ˆ":{"ha":475,"x_min":130,"x_max":469,"o":"m 284 970 l 386 970 l 469 793 l 368 793 l 321 902 l 232 793 l 130 793 l 284 970 z "},"˜":{"ha":475,"x_min":139,"x_max":504,"o":"m 159 939 q 254 970 206 970 q 325 952 289 970 q 399 935 361 935 q 504 966 450 935 l 484 864 q 389 833 437 833 q 318 850 354 833 q 244 868 282 868 q 139 837 193 868 l 159 939 z "},"¯":{"ha":475,"x_min":145,"x_max":505,"o":"m 505 970 l 484 868 l 145 868 l 165 970 l 505 970 z "},"¸":{"ha":310,"x_min":-146,"x_max":203,"o":"m -132 -179 q 8 -213 -65 -213 q 90 -169 81 -213 q 42 -125 98 -125 l -82 -125 l 42 51 l 134 51 l 58 -52 q 180 -169 203 -52 q -7 -286 157 -286 q -146 -252 -80 -286 l -132 -179 z "},"̦":{"ha":261,"x_min":-131,"x_max":134,"o":"m 134 -68 l -5 -258 l -131 -258 l 9 -68 l 134 -68 z "},"Š":{"ha":875,"x_min":12,"x_max":864,"o":"m 12 34 l 35 149 q 354 95 177 95 q 641 278 604 95 q 488 434 672 434 l 363 434 q 111 699 58 434 q 557 977 167 977 q 864 936 726 977 l 841 821 q 536 875 706 875 q 237 699 272 875 q 385 543 205 543 l 509 543 q 766 278 819 543 q 334 -7 709 -7 q 12 34 157 -7 m 420 1227 l 522 1227 l 568 1119 l 657 1227 l 759 1227 l 605 1051 l 503 1051 l 420 1227 z "},"š":{"ha":692,"x_min":-8,"x_max":650,"o":"m -8 34 l 14 142 q 259 102 131 102 q 450 203 429 102 q 350 298 469 298 l 255 298 q 66 509 24 298 q 404 712 107 712 q 650 678 531 712 l 628 570 q 383 610 511 610 q 185 509 205 610 q 278 414 166 414 l 373 414 q 575 203 617 414 q 239 0 534 0 q -8 34 111 0 m 274 970 l 376 970 l 422 861 l 511 970 l 613 970 l 459 793 l 357 793 l 274 970 z "},"¦":{"ha":329,"x_min":-46,"x_max":324,"o":"m 178 237 l 79 -258 l -46 -258 l 53 237 l 178 237 m 324 970 l 225 475 l 100 475 l 199 970 l 324 970 z "},"Ð":{"ha":1017,"x_min":-28,"x_max":1047,"o":"m 127 543 l 213 970 l 566 970 q 956 511 1047 970 q 372 0 853 0 l 19 0 l 107 441 l -28 441 l -8 543 l 127 543 m 253 543 l 500 543 l 480 441 l 233 441 l 165 102 l 392 102 q 830 511 748 102 q 545 868 901 868 l 318 868 l 253 543 z "},"ð":{"ha":780,"x_min":-30,"x_max":767,"o":"m 568 391 q 589 556 585 476 q 416 617 547 617 q 168 366 218 617 q 312 95 113 95 q 568 391 509 95 m 646 848 q 694 393 757 705 q 291 -7 614 -7 q 45 366 -30 -7 q 415 712 114 712 q 590 651 522 712 q 520 800 576 747 l 312 720 l 328 800 l 447 846 q 312 868 390 868 l 199 868 l 220 970 l 334 970 q 591 902 497 970 l 767 970 l 751 889 l 646 848 z "},"Ý":{"ha":882,"x_min":115,"x_max":962,"o":"m 115 970 l 249 970 l 427 463 l 812 970 l 962 970 l 466 339 l 398 0 l 273 0 l 340 339 l 115 970 m 586 1227 l 748 1227 l 553 1065 l 442 1065 l 586 1227 z "},"ý":{"ha":817,"x_min":5,"x_max":762,"o":"m 538 220 q 204 0 403 0 q 52 231 5 0 l 148 712 l 273 712 l 177 229 q 276 104 152 104 q 559 330 418 104 l 636 712 l 762 712 l 619 0 q 240 -258 568 -258 q 14 -224 109 -258 l 34 -122 q 262 -156 131 -156 q 494 0 463 -156 l 538 220 m 526 970 l 688 970 l 494 808 l 382 808 l 526 970 z "},"Þ":{"ha":843,"x_min":5,"x_max":848,"o":"m 5 0 l 199 970 l 325 970 l 283 761 l 571 761 q 802 528 848 761 q 351 203 749 266 l 346 309 q 667 523 633 353 q 539 657 694 657 l 262 657 l 131 0 l 5 0 z "},"þ":{"ha":779,"x_min":-46,"x_max":757,"o":"m 239 543 q 514 712 354 712 q 691 384 757 712 q 260 0 614 0 q 132 6 190 0 l 79 -258 l -46 -258 l 199 970 l 325 970 l 239 543 m 217 431 l 156 124 q 275 104 186 104 q 568 382 512 104 q 471 604 612 604 q 217 431 326 604 z "},"­":{"ha":644,"x_min":33,"x_max":562,"o":"m 562 407 l 541 305 l 33 305 l 53 407 l 562 407 z "},"×":{"ha":644,"x_min":14,"x_max":503,"o":"m 186 356 l 72 500 l 158 572 l 273 428 l 446 572 l 503 500 l 330 356 l 446 212 l 359 140 l 244 284 l 72 140 l 14 212 l 186 356 z "},"¹":{"ha":222,"x_min":85,"x_max":286,"o":"m 85 481 l 160 855 l 109 855 l 119 906 l 286 967 l 189 481 l 85 481 z "},"²":{"ha":400,"x_min":34,"x_max":464,"o":"m 34 481 l 52 573 q 330 821 310 718 q 267 878 342 878 q 119 841 193 878 l 138 936 q 286 970 211 970 q 434 821 464 970 q 190 573 410 702 l 385 573 l 366 481 l 34 481 z "},"³":{"ha":392,"x_min":37,"x_max":456,"o":"m 127 949 q 267 970 199 970 q 427 825 456 970 q 343 728 413 758 q 388 631 401 699 q 169 479 357 479 q 37 499 101 479 l 56 594 q 187 570 119 570 q 285 631 273 570 q 237 682 295 682 l 125 682 l 144 773 l 254 773 q 323 825 313 773 q 249 879 334 879 q 109 854 181 879 l 127 949 z "},"½":{"ha":978,"x_min":-28,"x_max":911,"o":"m 97 0 l -28 0 l 766 970 l 891 970 l 97 0 m 134 481 l 209 855 l 159 855 l 169 906 l 335 967 l 238 481 l 134 481 m 481 0 l 500 92 q 779 339 758 236 q 715 397 790 397 q 567 359 641 397 l 586 454 q 734 488 659 488 q 882 339 911 488 q 637 92 858 220 l 832 92 l 814 0 l 481 0 z "},"¼":{"ha":983,"x_min":-28,"x_max":916,"o":"m 97 0 l -28 0 l 766 970 l 891 970 l 97 0 m 134 481 l 209 855 l 159 855 l 169 906 l 335 967 l 238 481 l 134 481 m 589 468 q 728 488 661 488 q 887 343 916 488 q 804 246 874 277 q 848 149 862 217 q 630 -3 818 -3 q 498 18 562 -3 l 517 113 q 648 88 581 88 q 745 149 732 88 q 696 201 755 201 l 585 201 l 604 292 l 714 292 q 783 343 773 292 q 710 397 794 397 q 570 373 642 397 l 589 468 z "},"¾":{"ha":1010,"x_min":33,"x_max":953,"o":"m 159 0 l 33 0 l 827 970 l 953 970 l 159 0 m 796 0 l 693 0 l 713 102 l 481 102 l 500 193 l 706 484 l 816 484 l 613 193 l 732 193 l 768 372 l 871 372 l 835 193 l 880 167 l 867 102 l 817 102 l 796 0 m 161 949 q 301 970 233 970 q 460 825 489 970 q 377 728 447 758 q 421 631 435 699 q 203 479 391 479 q 71 499 135 479 l 90 594 q 221 570 153 570 q 317 631 305 570 q 269 682 328 682 l 158 682 l 176 773 l 287 773 q 356 825 346 773 q 283 879 367 879 q 142 854 215 879 l 161 949 z "},"Ł":{"ha":768,"x_min":-39,"x_max":659,"o":"m 102 483 l 199 970 l 325 970 l 245 575 l 497 736 l 473 614 l 221 453 l 151 102 l 659 102 l 638 0 l 5 0 l 77 361 l -39 286 l -15 408 l 102 483 z "},"ł":{"ha":342,"x_min":-33,"x_max":370,"o":"m 109 484 l 206 970 l 332 970 l 253 577 l 370 652 l 345 530 l 229 455 l 138 0 l 12 0 l 84 361 l -33 286 l -8 408 l 109 484 z "},"Ž":{"ha":902,"x_min":-12,"x_max":915,"o":"m 915 970 l 895 868 l 160 102 l 728 102 l 707 0 l -12 0 l 9 102 l 748 868 l 176 868 l 196 970 l 915 970 m 420 1227 l 522 1227 l 568 1119 l 657 1227 l 759 1227 l 605 1051 l 503 1051 l 420 1227 z "},"ž":{"ha":678,"x_min":-28,"x_max":656,"o":"m 127 712 l 656 712 l 636 610 l 135 95 l 526 95 l 507 0 l -28 0 l -9 95 l 497 610 l 107 610 l 127 712 m 267 970 l 369 970 l 415 861 l 505 970 l 606 970 l 452 793 l 351 793 l 267 970 z "},"≠":{"ha":644,"x_min":-28,"x_max":623,"o":"m 128 203 l 12 203 l 33 305 l 207 305 l 286 407 l 53 407 l 73 509 l 364 509 l 521 712 l 623 712 l 466 509 l 582 509 l 562 407 l 387 407 l 309 305 l 541 305 l 521 203 l 230 203 l 73 0 l -28 0 l 128 203 z "},"∞":{"ha":1031,"x_min":3,"x_max":978,"o":"m 43 356 q 300 556 83 556 q 507 441 435 556 q 761 556 625 556 q 938 356 978 556 q 681 156 898 156 q 473 271 545 156 q 220 156 355 156 q 43 356 3 156 m 826 356 q 741 454 846 454 q 551 356 652 454 q 701 258 613 258 q 826 356 806 258 m 155 356 q 240 258 135 258 q 429 356 328 258 q 279 454 368 454 q 155 356 174 454 z "},"≤":{"ha":644,"x_min":-28,"x_max":625,"o":"m 500 102 l 480 0 l -28 0 l -8 102 l 500 102 m 53 407 l 73 509 l 625 726 l 604 617 l 176 455 l 540 298 l 518 190 l 53 407 z "},"≥":{"ha":644,"x_min":-28,"x_max":582,"o":"m 500 102 l 480 0 l -28 0 l -8 102 l 500 102 m 9 190 l 31 298 l 458 455 l 95 617 l 117 726 l 582 509 l 562 407 l 9 190 z "},"∂":{"ha":825,"x_min":3,"x_max":923,"o":"m 617 875 q 299 780 443 875 l 322 895 q 652 977 486 977 q 863 674 923 977 q 800 475 845 587 q 269 -7 608 -7 q 45 204 3 -7 q 73 292 54 244 q 561 588 191 588 l 720 588 q 750 688 741 644 q 617 875 787 875 m 675 475 l 517 475 q 198 292 271 475 q 179 231 184 258 q 312 95 152 95 q 675 475 516 95 z "},"∑":{"ha":916,"x_min":-80,"x_max":945,"o":"m 165 970 l 945 970 l 925 868 l 274 868 l 556 380 l 83 -156 l 720 -156 l 700 -258 l -80 -258 l -60 -156 l 417 387 l 145 868 l 165 970 z "},"∏":{"ha":1119,"x_min":-46,"x_max":1115,"o":"m 1115 970 l 869 -258 l 751 -258 l 976 868 l 304 868 l 79 -258 l -46 -258 l 199 970 l 1115 970 z "},"π":{"ha":994,"x_min":35,"x_max":972,"o":"m 55 671 q 260 712 158 712 l 972 712 l 951 610 l 785 610 l 707 217 q 802 101 684 101 q 823 102 812 101 l 802 0 q 749 -3 774 -3 q 581 217 537 -3 l 660 610 l 365 610 l 243 -1 l 117 -1 l 239 610 q 35 570 138 610 l 55 671 z "},"∫":{"ha":399,"x_min":-117,"x_max":528,"o":"m 508 1024 q 313 803 357 1024 q 307 766 310 785 l 231 258 q 223 218 227 237 q -117 -102 159 -102 l -96 0 q 98 221 54 0 q 105 258 102 239 l 181 766 q 189 806 184 787 q 528 1126 252 1126 l 508 1024 z "},"Ω":{"ha":1092,"x_min":-5,"x_max":1111,"o":"m -5 0 l 16 102 l 222 102 q 94 543 42 285 q 646 983 182 983 q 1023 543 1111 983 q 718 102 971 285 l 924 102 l 904 0 l 531 0 l 551 102 q 897 543 846 285 q 626 882 965 882 q 219 543 287 882 q 389 102 168 285 l 368 0 l -5 0 z "},"√":{"ha":916,"x_min":77,"x_max":1071,"o":"m 97 712 l 345 712 l 399 165 l 949 1257 l 1071 1257 l 412 -5 l 300 -5 l 233 610 l 77 610 l 97 712 z "},"≈":{"ha":712,"x_min":12,"x_max":650,"o":"m 609 305 l 589 203 q 433 170 507 170 q 294 203 359 170 q 158 237 229 237 q 12 203 88 237 l 33 305 q 189 339 115 339 q 328 305 262 339 q 463 271 393 271 q 609 305 534 271 m 650 509 l 629 407 q 473 373 547 373 q 334 407 399 373 q 199 441 269 441 q 53 407 129 441 l 73 509 q 229 543 156 543 q 368 509 303 543 q 504 475 433 475 q 650 509 574 475 z "},"Δ":{"ha":998,"x_min":-79,"x_max":885,"o":"m -79 0 l 526 970 l 666 970 l 885 0 l -79 0 m 732 102 l 572 840 l 120 102 l 732 102 z "},"◊":{"ha":736,"x_min":35,"x_max":703,"o":"m 403 970 l 528 970 l 703 485 l 334 0 l 209 0 l 35 485 l 403 970 m 160 485 l 292 102 l 577 485 l 446 868 l 160 485 z "},"⁄":{"ha":861,"x_min":-28,"x_max":891,"o":"m 97 0 l -28 0 l 766 970 l 891 970 l 97 0 z "},"ﬁ":{"ha":740,"x_min":-119,"x_max":700,"o":"m 155 747 q 509 1019 209 1019 q 700 978 603 1019 l 680 876 q 488 917 587 917 q 282 759 314 917 l 273 712 l 671 712 l 528 0 l 403 0 l 525 610 l 253 610 l 142 54 q -28 -270 98 -161 l -119 -199 q 16 54 -16 -107 l 155 747 z "},"ﬂ":{"ha":749,"x_min":-119,"x_max":738,"o":"m 544 0 l 418 0 l 600 908 q 508 917 551 917 q 281 752 314 917 l 273 712 l 460 712 l 439 610 l 253 610 l 142 54 q -28 -270 98 -161 l -119 -199 q 16 54 -16 -107 l 155 747 q 529 1019 209 1019 q 738 970 637 1019 l 544 0 z "},"":{"ha":1169,"x_min":68,"x_max":1101,"o":"m 801 225 l 801 294 l 628 303 l 628 669 l 714 669 l 749 398 l 827 398 l 801 745 l 639 745 l 585 719 l 531 745 l 368 745 l 342 398 l 420 398 l 454 669 l 541 669 l 541 303 l 368 294 l 368 225 l 801 225 m 362 902 l 387 962 l 448 937 l 484 991 l 538 956 l 585 1001 l 631 956 l 686 991 l 722 937 l 782 962 l 807 902 l 871 915 l 884 850 l 950 850 l 950 785 l 1014 772 l 1001 708 l 1061 683 l 1037 622 l 1092 587 l 1055 531 l 1101 486 l 1055 439 l 1092 383 l 1036 348 l 1061 287 l 1001 262 l 1014 198 l 950 185 l 950 120 l 884 120 l 871 55 l 807 68 l 782 7 l 722 33 l 686 -22 l 631 14 l 585 -31 l 538 14 l 484 -22 l 448 33 l 387 7 l 362 68 l 298 55 l 285 120 l 219 120 l 219 185 l 155 198 l 168 262 l 106 288 l 132 348 l 77 384 l 115 439 l 68 486 l 115 531 l 77 587 l 133 623 l 108 683 l 168 708 l 155 772 l 219 785 l 219 850 l 285 850 l 298 915 l 362 902 m 585 913 q 281 788 407 913 q 156 486 156 663 q 281 182 156 307 q 585 56 407 56 q 888 182 762 56 q 1013 486 1013 307 q 888 788 1013 663 q 585 913 762 913 m 585 877 q 861 762 747 877 q 976 486 976 647 q 861 208 976 323 q 585 93 747 93 q 308 208 422 93 q 193 486 193 323 q 308 762 193 647 q 585 877 422 877 z "},"ı":{"ha":356,"x_min":19,"x_max":287,"o":"m 287 712 l 144 0 l 19 0 l 161 712 l 287 712 z "},"˘":{"ha":495,"x_min":130,"x_max":525,"o":"m 165 970 l 257 970 q 325 868 237 868 q 433 970 413 868 l 525 970 q 310 793 490 793 q 165 970 130 793 z "},"˙":{"ha":275,"x_min":140,"x_max":304,"o":"m 304 970 l 279 841 l 140 841 l 165 970 l 304 970 z "},"˚":{"ha":442,"x_min":127,"x_max":491,"o":"m 217 924 q 292 831 199 831 q 401 924 383 831 q 329 1015 420 1015 q 217 924 235 1015 m 156 923 q 339 1065 184 1065 q 463 923 491 1065 q 282 781 434 781 q 156 923 127 781 z "},"˝":{"ha":664,"x_min":133,"x_max":694,"o":"m 277 970 l 439 970 l 244 808 l 133 808 l 277 970 m 532 970 l 694 970 l 499 808 l 388 808 l 532 970 z "},"˛":{"ha":393,"x_min":-86,"x_max":216,"o":"m 216 0 q 48 -155 62 -85 q 96 -201 39 -201 q 192 -187 154 -201 l 174 -275 q 71 -289 130 -289 q -62 -172 -86 -289 q 83 0 -45 -83 l 216 0 z "},"ˇ":{"ha":475,"x_min":165,"x_max":505,"o":"m 165 970 l 267 970 l 313 861 l 403 970 l 505 970 l 351 793 l 249 793 l 165 970 z "},"€":{"ha":939,"x_min":-30,"x_max":939,"o":"m 758 34 q 479 -7 625 -7 q 71 498 -30 -7 q 675 977 167 977 q 939 936 821 977 l 917 827 q 669 875 801 875 q 224 639 331 875 l 749 639 l 728 537 l 191 537 l 176 463 l 713 463 l 693 361 l 169 361 q 513 95 168 95 q 780 142 645 95 l 758 34 z "},"Ż":{"ha":902,"x_min":-12,"x_max":915,"o":"m 915 970 l 895 868 l 160 102 l 728 102 l 707 0 l -12 0 l 9 102 l 748 868 l 176 868 l 196 970 l 915 970 m 659 1227 l 633 1099 l 494 1099 l 520 1227 l 659 1227 z "},"ż":{"ha":678,"x_min":-28,"x_max":656,"o":"m 127 712 l 656 712 l 636 610 l 135 95 l 526 95 l 507 0 l -28 0 l -9 95 l 497 610 l 107 610 l 127 712 m 507 970 l 481 841 l 342 841 l 368 970 l 507 970 z "},"Ź":{"ha":902,"x_min":-12,"x_max":915,"o":"m 915 970 l 895 868 l 160 102 l 728 102 l 707 0 l -12 0 l 9 102 l 748 868 l 176 868 l 196 970 l 915 970 m 610 1227 l 772 1227 l 577 1065 l 466 1065 l 610 1227 z "},"ź":{"ha":678,"x_min":-28,"x_max":656,"o":"m 127 712 l 656 712 l 636 610 l 135 95 l 526 95 l 507 0 l -28 0 l -9 95 l 497 610 l 107 610 l 127 712 m 457 970 l 619 970 l 425 808 l 313 808 l 457 970 z "},"Ą":{"ha":998,"x_min":-79,"x_max":885,"o":"m 58 0 l -79 0 l 526 970 l 665 970 l 885 0 q 717 -155 731 -85 q 766 -201 708 -201 q 861 -187 823 -201 l 844 -275 q 740 -289 800 -289 q 606 -172 583 -289 q 753 0 625 -83 l 688 305 l 368 305 l 422 407 l 667 407 l 574 846 l 58 0 z "},"ą":{"ha":778,"x_min":-28,"x_max":716,"o":"m 572 591 q 444 608 538 608 q 165 348 216 608 q 257 109 117 109 q 511 281 402 109 l 572 591 m 468 0 l 488 170 q 214 0 374 0 q 41 347 -28 0 q 470 712 114 712 q 716 683 614 712 l 580 0 q 412 -155 426 -85 q 460 -201 403 -201 q 556 -187 518 -201 l 538 -275 q 435 -289 494 -289 q 301 -172 278 -289 q 468 0 319 -83 z "},"Ć":{"ha":939,"x_min":-30,"x_max":939,"o":"m 758 34 q 479 -7 625 -7 q 71 498 -30 -7 q 675 977 167 977 q 939 936 821 977 l 917 827 q 669 875 801 875 q 197 498 272 875 q 513 95 116 95 q 780 142 645 95 l 758 34 m 671 1227 l 833 1227 l 638 1065 l 527 1065 l 671 1227 z "},"ć":{"ha":654,"x_min":-28,"x_max":639,"o":"m 518 88 q 270 0 412 0 q 44 363 -28 0 q 453 712 114 712 q 639 692 555 712 l 618 590 q 426 610 534 610 q 170 363 219 610 q 297 102 117 102 q 538 190 433 102 l 518 88 m 464 970 l 626 970 l 431 808 l 320 808 l 464 970 z "},"Ń":{"ha":1068,"x_min":19,"x_max":1050,"o":"m 19 0 l 213 970 l 338 970 l 773 177 l 932 970 l 1050 970 l 857 0 l 731 0 l 298 806 l 138 0 l 19 0 m 686 1227 l 848 1227 l 653 1065 l 542 1065 l 686 1227 z "},"ń":{"ha":817,"x_min":5,"x_max":762,"o":"m 5 0 l 148 712 l 260 712 l 229 492 q 563 712 364 712 q 715 481 762 712 l 619 0 l 494 0 l 590 483 q 491 608 615 608 q 208 382 349 608 l 131 0 l 5 0 m 526 970 l 688 970 l 494 808 l 382 808 l 526 970 z "},"Ś":{"ha":875,"x_min":12,"x_max":864,"o":"m 12 34 l 35 149 q 354 95 177 95 q 641 278 604 95 q 488 434 672 434 l 363 434 q 111 699 58 434 q 557 977 167 977 q 864 936 726 977 l 841 821 q 536 875 706 875 q 237 699 272 875 q 385 543 205 543 l 509 543 q 766 278 819 543 q 334 -7 709 -7 q 12 34 157 -7 m 589 1227 l 751 1227 l 557 1065 l 446 1065 l 589 1227 z "},"ś":{"ha":692,"x_min":-8,"x_max":650,"o":"m -8 34 l 14 142 q 259 102 131 102 q 450 203 429 102 q 350 298 469 298 l 255 298 q 66 509 24 298 q 404 712 107 712 q 650 678 531 712 l 628 570 q 383 610 511 610 q 185 509 205 610 q 278 414 166 414 l 373 414 q 575 203 617 414 q 239 0 534 0 q -8 34 111 0 m 464 970 l 626 970 l 431 808 l 320 808 l 464 970 z "},"Ę":{"ha":834,"x_min":19,"x_max":847,"o":"m 531 0 l 19 0 l 213 970 l 847 970 l 827 868 l 318 868 l 253 543 l 738 543 l 718 441 l 233 441 l 165 102 l 684 102 l 663 0 q 495 -155 509 -85 q 544 -201 486 -201 q 640 -187 602 -201 l 622 -275 q 518 -289 578 -289 q 385 -172 361 -289 q 531 0 403 -83 z "},"ę":{"ha":736,"x_min":-28,"x_max":721,"o":"m 180 418 l 408 418 q 555 511 536 418 q 421 612 575 612 q 180 418 231 612 m 430 18 q 298 0 368 0 q 44 364 -28 0 q 441 712 114 712 q 680 509 721 712 q 387 313 641 313 l 159 313 q 318 102 117 102 q 585 190 473 102 l 558 54 q 382 -141 397 -65 q 428 -201 370 -201 q 524 -187 486 -201 l 506 -275 q 402 -289 462 -289 q 269 -172 245 -289 q 409 3 286 -88 l 430 18 z "},"Č":{"ha":939,"x_min":-30,"x_max":939,"o":"m 758 34 q 479 -7 625 -7 q 71 498 -30 -7 q 675 977 167 977 q 939 936 821 977 l 917 827 q 669 875 801 875 q 197 498 272 875 q 513 95 116 95 q 780 142 645 95 l 758 34 m 488 1227 l 590 1227 l 636 1119 l 726 1227 l 827 1227 l 673 1051 l 572 1051 l 488 1227 z "},"č":{"ha":654,"x_min":-28,"x_max":639,"o":"m 518 88 q 270 0 412 0 q 44 363 -28 0 q 453 712 114 712 q 639 692 555 712 l 618 590 q 426 610 534 610 q 170 363 219 610 q 297 102 117 102 q 538 190 433 102 l 518 88 m 274 970 l 376 970 l 422 861 l 511 970 l 613 970 l 459 793 l 357 793 l 274 970 z "},"Ď":{"ha":1017,"x_min":19,"x_max":1047,"o":"m 392 102 q 830 511 748 102 q 545 868 901 868 l 318 868 l 165 102 l 392 102 m 19 0 l 213 970 l 566 970 q 956 511 1047 970 q 372 0 853 0 l 19 0 m 440 1227 l 542 1227 l 588 1119 l 677 1227 l 779 1227 l 625 1051 l 524 1051 l 440 1227 z "},"ď":{"ha":778,"x_min":-28,"x_max":1069,"o":"m 572 591 q 444 608 538 608 q 165 348 216 608 q 257 109 117 109 q 511 281 402 109 l 572 591 m 580 0 l 468 0 l 488 170 q 214 0 374 0 q 41 347 -28 0 q 470 712 114 712 q 595 706 537 712 l 648 970 l 774 970 l 580 0 m 1069 970 l 908 675 l 783 675 l 943 970 l 1069 970 z "},"Ě":{"ha":834,"x_min":19,"x_max":847,"o":"m 847 970 l 827 868 l 318 868 l 253 543 l 738 543 l 718 441 l 233 441 l 165 102 l 684 102 l 663 0 l 19 0 l 213 970 l 847 970 m 406 1227 l 508 1227 l 554 1119 l 644 1227 l 745 1227 l 591 1051 l 490 1051 l 406 1227 z "},"ě":{"ha":736,"x_min":-28,"x_max":721,"o":"m 441 712 q 680 509 721 712 q 387 313 641 313 l 159 313 q 318 102 117 102 q 585 190 473 102 l 565 88 q 298 0 453 0 q 44 364 -28 0 q 441 712 114 712 m 180 418 l 408 418 q 555 511 536 418 q 421 612 575 612 q 180 418 231 612 m 307 970 l 408 970 l 454 861 l 544 970 l 646 970 l 492 793 l 390 793 l 307 970 z "},"Ň":{"ha":1068,"x_min":19,"x_max":1050,"o":"m 19 0 l 213 970 l 338 970 l 773 177 l 932 970 l 1050 970 l 857 0 l 731 0 l 298 806 l 138 0 l 19 0 m 503 1227 l 605 1227 l 651 1119 l 741 1227 l 842 1227 l 688 1051 l 587 1051 l 503 1227 z "},"ň":{"ha":817,"x_min":5,"x_max":762,"o":"m 5 0 l 148 712 l 260 712 l 229 492 q 563 712 364 712 q 715 481 762 712 l 619 0 l 494 0 l 590 483 q 491 608 615 608 q 208 382 349 608 l 131 0 l 5 0 m 337 970 l 439 970 l 485 861 l 574 970 l 676 970 l 522 793 l 420 793 l 337 970 z "},"Ř":{"ha":885,"x_min":19,"x_max":903,"o":"m 19 0 l 213 970 l 627 970 q 857 737 903 970 q 530 444 819 548 l 772 0 l 620 0 l 399 436 l 415 518 q 722 732 688 562 q 594 866 749 866 l 317 866 l 144 0 l 19 0 m 386 1227 l 488 1227 l 534 1119 l 623 1227 l 725 1227 l 571 1051 l 469 1051 l 386 1227 z "},"ř":{"ha":481,"x_min":5,"x_max":552,"o":"m 5 0 l 148 712 l 260 712 l 228 486 q 514 712 349 712 l 492 601 q 208 382 330 601 l 131 0 l 5 0 m 213 970 l 315 970 l 361 861 l 450 970 l 552 970 l 398 793 l 296 793 l 213 970 z "},"Ť":{"ha":804,"x_min":111,"x_max":867,"o":"m 867 970 l 847 868 l 542 868 l 368 0 l 243 0 l 416 868 l 111 868 l 132 970 l 867 970 m 371 1227 l 473 1227 l 519 1119 l 608 1227 l 710 1227 l 556 1051 l 454 1051 l 371 1227 z "},"ť":{"ha":458,"x_min":5,"x_max":759,"o":"m 171 827 l 250 827 l 254 712 l 446 712 l 426 610 l 253 610 l 171 201 q 237 102 151 102 l 324 102 l 304 0 l 184 0 q 44 192 5 0 l 171 827 m 759 970 l 598 675 l 473 675 l 633 970 l 759 970 z "},"Ů":{"ha":1024,"x_min":11,"x_max":1013,"o":"m 87 374 l 206 970 l 332 970 l 212 374 q 435 95 157 95 q 768 374 713 95 l 888 970 l 1013 970 l 894 374 q 414 -7 818 -7 q 87 374 11 -7 m 549 1113 q 624 1020 530 1020 q 733 1113 715 1020 q 661 1204 751 1204 q 549 1113 567 1204 m 488 1112 q 671 1254 516 1254 q 794 1112 823 1254 q 614 970 766 970 q 488 1112 459 970 z "},"ů":{"ha":817,"x_min":5,"x_max":762,"o":"m 762 712 l 619 0 l 507 0 l 538 220 q 204 0 403 0 q 52 231 5 0 l 148 712 l 273 712 l 177 229 q 276 104 152 104 q 559 330 418 104 l 636 712 l 762 712 m 405 924 q 480 831 387 831 q 589 924 571 831 q 517 1015 608 1015 q 405 924 423 1015 m 344 923 q 527 1065 372 1065 q 650 923 679 1065 q 470 781 622 781 q 344 923 315 781 z "},"Ā":{"ha":998,"x_min":-79,"x_max":885,"o":"m 58 0 l -79 0 l 526 970 l 665 970 l 885 0 l 753 0 l 688 305 l 368 305 l 422 407 l 667 407 l 574 846 l 58 0 m 807 1227 l 787 1126 l 448 1126 l 468 1227 l 807 1227 z "},"ā":{"ha":778,"x_min":-28,"x_max":716,"o":"m 572 591 q 444 608 538 608 q 165 348 216 608 q 257 109 117 109 q 511 281 402 109 l 572 591 m 580 0 l 468 0 l 488 170 q 214 0 374 0 q 41 347 -28 0 q 470 712 114 712 q 716 683 614 712 l 580 0 m 660 970 l 640 868 l 300 868 l 321 970 l 660 970 z "},"Ă":{"ha":998,"x_min":-79,"x_max":885,"o":"m 58 0 l -79 0 l 526 970 l 665 970 l 885 0 l 753 0 l 688 305 l 368 305 l 422 407 l 667 407 l 574 846 l 58 0 m 458 1227 l 549 1227 q 617 1126 529 1126 q 726 1227 705 1126 l 817 1227 q 602 1051 782 1051 q 458 1227 422 1051 z "},"ă":{"ha":778,"x_min":-28,"x_max":716,"o":"m 572 591 q 444 608 538 608 q 165 348 216 608 q 257 109 117 109 q 511 281 402 109 l 572 591 m 580 0 l 468 0 l 488 170 q 214 0 374 0 q 41 347 -28 0 q 470 712 114 712 q 716 683 614 712 l 580 0 m 311 970 l 402 970 q 470 868 382 868 q 578 970 558 868 l 670 970 q 455 793 635 793 q 311 970 275 793 z "},"Ĉ":{"ha":939,"x_min":-30,"x_max":939,"o":"m 758 34 q 479 -7 625 -7 q 71 498 -30 -7 q 675 977 167 977 q 939 936 821 977 l 917 827 q 669 875 801 875 q 197 498 272 875 q 513 95 116 95 q 780 142 645 95 l 758 34 m 633 1227 l 735 1227 l 819 1051 l 717 1051 l 671 1160 l 581 1051 l 479 1051 l 633 1227 z "},"ĉ":{"ha":654,"x_min":-28,"x_max":639,"o":"m 518 88 q 270 0 412 0 q 44 363 -28 0 q 453 712 114 712 q 639 692 555 712 l 618 590 q 426 610 534 610 q 170 363 219 610 q 297 102 117 102 q 538 190 433 102 l 518 88 m 406 970 l 508 970 l 591 793 l 490 793 l 444 902 l 354 793 l 252 793 l 406 970 z "},"Ċ":{"ha":939,"x_min":-30,"x_max":939,"o":"m 758 34 q 479 -7 625 -7 q 71 498 -30 -7 q 675 977 167 977 q 939 936 821 977 l 917 827 q 669 875 801 875 q 197 498 272 875 q 513 95 116 95 q 780 142 645 95 l 758 34 m 774 1227 l 749 1099 l 610 1099 l 635 1227 l 774 1227 z "},"ċ":{"ha":654,"x_min":-28,"x_max":639,"o":"m 518 88 q 270 0 412 0 q 44 363 -28 0 q 453 712 114 712 q 639 692 555 712 l 618 590 q 426 610 534 610 q 170 363 219 610 q 297 102 117 102 q 538 190 433 102 l 518 88 m 527 970 l 501 841 l 362 841 l 388 970 l 527 970 z "},"Đ":{"ha":1017,"x_min":-42,"x_max":1034,"o":"m 114 543 l 199 970 l 552 970 q 942 511 1034 970 q 358 0 840 0 l 5 0 l 94 441 l -42 441 l -22 543 l 114 543 m 239 543 l 487 543 l 467 441 l 219 441 l 151 102 l 378 102 q 817 511 734 102 q 532 868 888 868 l 304 868 l 239 543 z "},"đ":{"ha":778,"x_min":-28,"x_max":774,"o":"m 572 591 q 444 608 538 608 q 165 348 216 608 q 257 109 117 109 q 511 281 402 109 l 572 591 m 629 875 l 648 970 l 774 970 l 580 0 l 468 0 l 488 170 q 214 0 374 0 q 41 347 -28 0 q 470 712 114 712 q 595 706 537 712 l 609 773 l 140 773 l 160 875 l 629 875 z "},"Ē":{"ha":834,"x_min":19,"x_max":847,"o":"m 847 970 l 827 868 l 318 868 l 253 543 l 738 543 l 718 441 l 233 441 l 165 102 l 684 102 l 663 0 l 19 0 l 213 970 l 847 970 m 745 1227 l 725 1126 l 386 1126 l 406 1227 l 745 1227 z "},"ē":{"ha":736,"x_min":-28,"x_max":721,"o":"m 441 712 q 680 509 721 712 q 387 313 641 313 l 159 313 q 318 102 117 102 q 585 190 473 102 l 565 88 q 298 0 453 0 q 44 364 -28 0 q 441 712 114 712 m 180 418 l 408 418 q 555 511 536 418 q 421 612 575 612 q 180 418 231 612 m 646 970 l 625 868 l 286 868 l 307 970 l 646 970 z "},"Ĕ":{"ha":834,"x_min":19,"x_max":847,"o":"m 847 970 l 827 868 l 318 868 l 253 543 l 738 543 l 718 441 l 233 441 l 165 102 l 684 102 l 663 0 l 19 0 l 213 970 l 847 970 m 396 1227 l 488 1227 q 555 1126 467 1126 q 664 1227 644 1126 l 755 1227 q 541 1051 720 1051 q 396 1227 361 1051 z "},"ĕ":{"ha":736,"x_min":-28,"x_max":721,"o":"m 441 712 q 680 509 721 712 q 387 313 641 313 l 159 313 q 318 102 117 102 q 585 190 473 102 l 565 88 q 298 0 453 0 q 44 364 -28 0 q 441 712 114 712 m 180 418 l 408 418 q 555 511 536 418 q 421 612 575 612 q 180 418 231 612 m 296 970 l 388 970 q 456 868 368 868 q 564 970 544 868 l 656 970 q 441 793 621 793 q 296 970 261 793 z "},"Ė":{"ha":834,"x_min":19,"x_max":847,"o":"m 847 970 l 827 868 l 318 868 l 253 543 l 738 543 l 718 441 l 233 441 l 165 102 l 684 102 l 663 0 l 19 0 l 213 970 l 847 970 m 646 1227 l 620 1099 l 481 1099 l 507 1227 l 646 1227 z "},"ė":{"ha":736,"x_min":-28,"x_max":721,"o":"m 441 712 q 680 509 721 712 q 387 313 641 313 l 159 313 q 318 102 117 102 q 585 190 473 102 l 565 88 q 298 0 453 0 q 44 364 -28 0 q 441 712 114 712 m 180 418 l 408 418 q 555 511 536 418 q 421 612 575 612 q 180 418 231 612 m 545 970 l 519 841 l 380 841 l 406 970 l 545 970 z "},"Ĝ":{"ha":939,"x_min":-30,"x_max":939,"o":"m 759 38 q 497 -7 633 -7 q 71 498 -30 -7 q 675 977 167 977 q 939 936 821 977 l 917 827 q 669 875 801 875 q 197 498 272 875 q 507 95 116 95 q 648 111 569 95 l 714 441 l 840 441 l 759 38 m 620 1227 l 722 1227 l 805 1051 l 703 1051 l 657 1160 l 568 1051 l 466 1051 l 620 1227 z "},"ĝ":{"ha":778,"x_min":-28,"x_max":716,"o":"m 572 591 q 444 608 538 608 q 165 348 216 608 q 257 109 117 109 q 511 281 402 109 l 572 591 m 580 0 q 201 -258 528 -258 q -26 -224 69 -258 l -5 -122 q 222 -156 92 -156 q 454 0 423 -156 l 488 170 q 214 0 374 0 q 41 347 -28 0 q 470 712 114 712 q 716 683 614 712 l 580 0 m 439 970 l 541 970 l 625 793 l 523 793 l 477 902 l 387 793 l 286 793 l 439 970 z "},"Ğ":{"ha":939,"x_min":-30,"x_max":939,"o":"m 759 38 q 497 -7 633 -7 q 71 498 -30 -7 q 675 977 167 977 q 939 936 821 977 l 917 827 q 669 875 801 875 q 197 498 272 875 q 507 95 116 95 q 648 111 569 95 l 714 441 l 840 441 l 759 38 m 491 1227 l 583 1227 q 650 1126 562 1126 q 759 1227 739 1126 l 850 1227 q 635 1051 815 1051 q 491 1227 456 1051 z "},"ğ":{"ha":778,"x_min":-28,"x_max":716,"o":"m 572 591 q 444 608 538 608 q 165 348 216 608 q 257 109 117 109 q 511 281 402 109 l 572 591 m 580 0 q 201 -258 528 -258 q -26 -224 69 -258 l -5 -122 q 222 -156 92 -156 q 454 0 423 -156 l 488 170 q 214 0 374 0 q 41 347 -28 0 q 470 712 114 712 q 716 683 614 712 l 580 0 m 311 970 l 402 970 q 470 868 382 868 q 578 970 558 868 l 670 970 q 455 793 635 793 q 311 970 275 793 z "},"Ġ":{"ha":939,"x_min":-30,"x_max":939,"o":"m 759 38 q 497 -7 633 -7 q 71 498 -30 -7 q 675 977 167 977 q 939 936 821 977 l 917 827 q 669 875 801 875 q 197 498 272 875 q 507 95 116 95 q 648 111 569 95 l 714 441 l 840 441 l 759 38 m 774 1227 l 749 1099 l 610 1099 l 635 1227 l 774 1227 z "},"ġ":{"ha":778,"x_min":-28,"x_max":716,"o":"m 572 591 q 444 608 538 608 q 165 348 216 608 q 257 109 117 109 q 511 281 402 109 l 572 591 m 580 0 q 201 -258 528 -258 q -26 -224 69 -258 l -5 -122 q 222 -156 92 -156 q 454 0 423 -156 l 488 170 q 214 0 374 0 q 41 347 -28 0 q 470 712 114 712 q 716 683 614 712 l 580 0 m 559 970 l 534 841 l 395 841 l 420 970 l 559 970 z "},"Ģ":{"ha":939,"x_min":-30,"x_max":939,"o":"m 759 38 q 497 -7 633 -7 q 71 498 -30 -7 q 675 977 167 977 q 939 936 821 977 l 917 827 q 669 875 801 875 q 197 498 272 875 q 507 95 116 95 q 648 111 569 95 l 714 441 l 840 441 l 759 38 m 462 -68 l 322 -258 l 197 -258 l 336 -68 l 462 -68 z "},"ģ":{"ha":778,"x_min":-28,"x_max":716,"o":"m 572 591 q 444 608 538 608 q 165 348 216 608 q 257 109 117 109 q 511 281 402 109 l 572 591 m 580 0 q 201 -258 528 -258 q -26 -224 69 -258 l -5 -122 q 222 -156 92 -156 q 454 0 423 -156 l 488 170 q 214 0 374 0 q 41 347 -28 0 q 470 712 114 712 q 716 683 614 712 l 580 0 m 645 970 l 505 780 l 380 780 l 519 970 l 645 970 z "},"Ĥ":{"ha":1055,"x_min":19,"x_max":1037,"o":"m 19 0 l 213 970 l 338 970 l 253 543 l 826 543 l 911 970 l 1037 970 l 843 0 l 718 0 l 806 441 l 233 441 l 144 0 l 19 0 m 614 1227 l 716 1227 l 800 1051 l 698 1051 l 652 1160 l 562 1051 l 460 1051 l 614 1227 z "},"ĥ":{"ha":817,"x_min":6,"x_max":762,"o":"m 6 0 l 200 970 l 326 970 l 233 506 q 564 712 365 712 q 716 481 762 712 l 620 0 l 494 0 l 591 483 q 492 608 616 608 q 208 382 350 608 l 132 0 l 6 0 m 266 1244 l 368 1244 l 451 1068 l 349 1068 l 303 1177 l 214 1068 l 112 1068 l 266 1244 z "},"Ħ":{"ha":1055,"x_min":19,"x_max":1037,"o":"m 880 814 l 911 970 l 1037 970 l 843 0 l 718 0 l 806 441 l 233 441 l 144 0 l 19 0 l 213 970 l 338 970 l 307 814 l 880 814 m 287 712 l 253 543 l 826 543 l 860 712 l 287 712 z "},"ħ":{"ha":817,"x_min":5,"x_max":794,"o":"m 286 773 l 232 506 q 563 712 364 712 q 715 481 762 712 l 619 0 l 494 0 l 590 483 q 491 608 615 608 q 208 382 349 608 l 131 0 l 5 0 l 199 970 l 325 970 l 306 875 l 794 875 l 774 773 l 286 773 z "},"Ĩ":{"ha":397,"x_min":40,"x_max":519,"o":"m 359 970 l 165 0 l 40 0 l 234 970 l 359 970 m 175 1196 q 269 1227 222 1227 q 340 1210 304 1227 q 414 1192 376 1192 q 519 1223 465 1192 l 499 1122 q 405 1090 452 1090 q 334 1108 370 1090 q 260 1126 298 1126 q 155 1095 209 1126 l 175 1196 z "},"ĩ":{"ha":356,"x_min":20,"x_max":445,"o":"m 288 712 l 145 0 l 20 0 l 162 712 l 288 712 m 100 939 q 195 970 147 970 q 266 952 230 970 q 340 935 302 935 q 445 966 391 935 l 425 864 q 330 833 378 833 q 259 850 295 833 q 185 868 223 868 q 80 837 134 868 l 100 939 z "},"Ī":{"ha":397,"x_min":40,"x_max":520,"o":"m 359 970 l 165 0 l 40 0 l 234 970 l 359 970 m 520 1227 l 500 1126 l 161 1126 l 181 1227 l 520 1227 z "},"ī":{"ha":356,"x_min":20,"x_max":446,"o":"m 288 712 l 145 0 l 20 0 l 162 712 l 288 712 m 446 970 l 425 868 l 86 868 l 106 970 l 446 970 z "},"Ĭ":{"ha":397,"x_min":40,"x_max":530,"o":"m 359 970 l 165 0 l 40 0 l 234 970 l 359 970 m 171 1227 l 262 1227 q 330 1126 242 1126 q 439 1227 418 1126 l 530 1227 q 315 1051 495 1051 q 171 1227 136 1051 z "},"ĭ":{"ha":356,"x_min":20,"x_max":456,"o":"m 288 712 l 145 0 l 20 0 l 162 712 l 288 712 m 96 970 l 188 970 q 256 868 168 868 q 364 970 344 868 l 456 970 q 241 793 420 793 q 96 970 61 793 z "},"Į":{"ha":397,"x_min":-130,"x_max":359,"o":"m 39 0 l 233 970 l 359 970 l 165 0 q 4 -155 18 -85 q 52 -201 -5 -201 q 148 -187 110 -201 l 130 -275 q 26 -289 86 -289 q -106 -172 -130 -289 q 39 0 -89 -83 z "},"į":{"ha":356,"x_min":-151,"x_max":338,"o":"m 338 970 l 315 851 l 189 851 l 213 970 l 338 970 m 19 0 l 161 712 l 287 712 l 144 0 q -16 -155 -3 -85 q 32 -201 -26 -201 q 127 -187 90 -201 l 110 -275 q 6 -289 66 -289 q -127 -172 -151 -289 q 19 0 -109 -83 z "},"İ":{"ha":397,"x_min":39,"x_max":420,"o":"m 359 970 l 165 0 l 39 0 l 233 970 l 359 970 m 420 1227 l 394 1099 l 255 1099 l 281 1227 l 420 1227 z "},"Ĳ":{"ha":844,"x_min":39,"x_max":840,"o":"m 359 970 l 165 0 l 39 0 l 233 970 l 359 970 m 840 970 l 702 279 q 317 0 646 0 l 338 102 q 576 279 541 102 l 715 970 l 840 970 z "},"ĳ":{"ha":712,"x_min":19,"x_max":694,"o":"m 287 712 l 144 0 l 19 0 l 161 712 l 287 712 m 338 970 l 315 851 l 189 851 l 213 970 l 338 970 m 643 712 l 511 54 q 341 -270 468 -161 l 250 -199 q 386 54 353 -107 l 517 712 l 643 712 m 694 970 l 671 851 l 545 851 l 569 970 l 694 970 z "},"Ĵ":{"ha":468,"x_min":-79,"x_max":570,"o":"m 444 970 l 305 279 q -79 0 250 0 l -59 102 q 180 279 144 102 l 318 970 l 444 970 m 385 1227 l 486 1227 l 570 1051 l 468 1051 l 422 1160 l 332 1051 l 231 1051 l 385 1227 z "},"ĵ":{"ha":356,"x_min":-106,"x_max":408,"o":"m 287 712 l 155 54 q -15 -270 112 -161 l -106 -199 q 30 54 -3 -107 l 161 712 l 287 712 m 223 970 l 325 970 l 408 793 l 307 793 l 260 902 l 171 793 l 69 793 l 223 970 z "},"Ķ":{"ha":973,"x_min":19,"x_max":1007,"o":"m 338 970 l 144 0 l 19 0 l 213 970 l 338 970 m 1007 970 l 471 508 l 857 0 l 689 0 l 348 473 l 363 549 l 842 970 l 1007 970 m 510 -68 l 370 -258 l 245 -258 l 385 -68 l 510 -68 z "},"ķ":{"ha":801,"x_min":5,"x_max":779,"o":"m 5 0 l 199 970 l 325 970 l 235 521 q 560 712 377 712 q 739 513 779 712 q 480 271 709 364 l 661 0 l 502 0 l 348 261 l 361 324 q 612 507 587 379 q 524 610 633 610 q 213 411 366 610 l 131 0 l 5 0 m 366 -68 l 226 -258 l 100 -258 l 240 -68 l 366 -68 z "},"ĸ":{"ha":741,"x_min":5,"x_max":783,"o":"m 783 712 l 420 391 l 651 0 l 484 0 l 292 342 l 306 412 l 628 712 l 783 712 m 5 0 l 148 712 l 273 712 l 131 0 l 5 0 z "},"Ĺ":{"ha":782,"x_min":19,"x_max":672,"o":"m 338 970 l 165 102 l 672 102 l 652 0 l 19 0 l 213 970 l 338 970 m 380 1227 l 542 1227 l 347 1065 l 236 1065 l 380 1227 z "},"ĺ":{"ha":342,"x_min":12,"x_max":528,"o":"m 332 970 l 138 0 l 12 0 l 206 970 l 332 970 m 366 1244 l 528 1244 l 333 1082 l 222 1082 l 366 1244 z "},"Ļ":{"ha":782,"x_min":19,"x_max":672,"o":"m 338 970 l 165 102 l 672 102 l 652 0 l 19 0 l 213 970 l 338 970 m 401 -68 l 262 -258 l 136 -258 l 276 -68 l 401 -68 z "},"ļ":{"ha":342,"x_min":-144,"x_max":332,"o":"m 332 970 l 138 0 l 12 0 l 206 970 l 332 970 m 121 -68 l -19 -258 l -144 -258 l -5 -68 l 121 -68 z "},"Ľ":{"ha":782,"x_min":19,"x_max":694,"o":"m 338 970 l 165 102 l 672 102 l 652 0 l 19 0 l 213 970 l 338 970 m 694 970 l 534 675 l 408 675 l 569 970 l 694 970 z "},"ľ":{"ha":342,"x_min":12,"x_max":627,"o":"m 332 970 l 138 0 l 12 0 l 206 970 l 332 970 m 627 970 l 466 675 l 340 675 l 501 970 l 627 970 z "},"Ŀ":{"ha":782,"x_min":19,"x_max":672,"o":"m 338 970 l 165 102 l 672 102 l 652 0 l 19 0 l 213 970 l 338 970 m 367 485 q 469 570 384 570 q 536 485 553 570 q 435 400 519 400 q 367 485 350 400 z "},"ŀ":{"ha":342,"x_min":12,"x_max":490,"o":"m 332 970 l 138 0 l 12 0 l 206 970 l 332 970 m 304 397 q 406 481 321 481 q 473 397 490 481 q 372 312 456 312 q 304 397 287 312 z "},"Ņ":{"ha":1068,"x_min":19,"x_max":1050,"o":"m 19 0 l 213 970 l 338 970 l 773 177 l 932 970 l 1050 970 l 857 0 l 731 0 l 298 806 l 138 0 l 19 0 m 504 -68 l 364 -258 l 239 -258 l 378 -68 l 504 -68 z "},"ņ":{"ha":817,"x_min":5,"x_max":762,"o":"m 5 0 l 148 712 l 260 712 l 229 492 q 563 712 364 712 q 715 481 762 712 l 619 0 l 494 0 l 590 483 q 491 608 615 608 q 208 382 349 608 l 131 0 l 5 0 m 378 -68 l 239 -258 l 113 -258 l 253 -68 l 378 -68 z "},"ŉ":{"ha":885,"x_min":-63,"x_max":829,"o":"m 223 970 l 62 675 l -63 675 l 98 970 l 223 970 m 73 0 l 216 712 l 328 712 l 297 492 q 631 712 432 712 q 783 481 829 712 l 687 0 l 562 0 l 658 483 q 559 608 683 608 q 275 382 417 608 l 199 0 l 73 0 z "},"Ŋ":{"ha":1068,"x_min":19,"x_max":1050,"o":"m 731 0 l 298 806 l 138 0 l 19 0 l 213 970 l 338 970 l 772 177 l 932 970 l 1050 970 l 867 54 q 697 -270 824 -161 l 606 -199 q 731 0 698 -123 z "},"ŋ":{"ha":817,"x_min":5,"x_max":762,"o":"m 590 483 q 491 608 615 608 q 208 382 349 608 l 131 0 l 5 0 l 148 712 l 260 712 l 229 492 q 563 712 364 712 q 715 481 762 712 l 630 54 q 460 -270 587 -161 l 369 -199 q 505 54 472 -107 l 590 483 z "},"Ō":{"ha":1129,"x_min":-16,"x_max":1147,"o":"m 215 488 q 491 95 136 95 q 917 488 838 95 q 647 875 994 875 q 215 488 292 875 m 82 484 q 667 977 180 977 q 1048 484 1147 977 q 471 -7 950 -7 q 82 484 -16 -7 m 900 1227 l 880 1126 l 541 1126 l 561 1227 l 900 1227 z "},"ō":{"ha":787,"x_min":-27,"x_max":765,"o":"m 169 359 q 317 102 117 102 q 569 359 517 102 q 419 610 619 610 q 169 359 219 610 m 43 356 q 439 712 114 712 q 694 356 765 712 q 297 1 623 1 q 43 356 -27 1 m 661 970 l 640 868 l 301 868 l 321 970 l 661 970 z "},"Ŏ":{"ha":1129,"x_min":-16,"x_max":1147,"o":"m 215 488 q 491 95 136 95 q 917 488 838 95 q 647 875 994 875 q 215 488 292 875 m 82 484 q 667 977 180 977 q 1048 484 1147 977 q 471 -7 950 -7 q 82 484 -16 -7 m 551 1227 l 642 1227 q 710 1126 622 1126 q 819 1227 798 1126 l 910 1227 q 695 1051 875 1051 q 551 1227 515 1051 z "},"ŏ":{"ha":787,"x_min":-27,"x_max":765,"o":"m 169 359 q 317 102 117 102 q 569 359 517 102 q 419 610 619 610 q 169 359 219 610 m 43 356 q 439 712 114 712 q 694 356 765 712 q 297 1 623 1 q 43 356 -27 1 m 311 970 l 403 970 q 471 868 382 868 q 579 970 559 868 l 671 970 q 456 793 635 793 q 311 970 276 793 z "},"Ő":{"ha":1129,"x_min":-16,"x_max":1147,"o":"m 215 488 q 491 95 136 95 q 917 488 838 95 q 647 875 994 875 q 215 488 292 875 m 82 484 q 667 977 180 977 q 1048 484 1147 977 q 471 -7 950 -7 q 82 484 -16 -7 m 618 1227 l 780 1227 l 585 1065 l 474 1065 l 618 1227 m 873 1227 l 1035 1227 l 840 1065 l 729 1065 l 873 1227 z "},"ő":{"ha":787,"x_min":-27,"x_max":796,"o":"m 169 359 q 317 102 117 102 q 569 359 517 102 q 419 610 619 610 q 169 359 219 610 m 43 356 q 439 712 114 712 q 694 356 765 712 q 297 1 623 1 q 43 356 -27 1 m 379 970 l 541 970 l 347 808 l 235 808 l 379 970 m 634 970 l 796 970 l 602 808 l 490 808 l 634 970 z "},"Ŕ":{"ha":885,"x_min":19,"x_max":903,"o":"m 19 0 l 213 970 l 627 970 q 857 737 903 970 q 530 444 819 548 l 772 0 l 620 0 l 399 436 l 415 518 q 722 732 688 562 q 594 866 749 866 l 317 866 l 144 0 l 19 0 m 583 1227 l 745 1227 l 550 1065 l 439 1065 l 583 1227 z "},"ŕ":{"ha":481,"x_min":5,"x_max":565,"o":"m 5 0 l 148 712 l 260 712 l 228 486 q 514 712 349 712 l 492 601 q 208 382 330 601 l 131 0 l 5 0 m 403 970 l 565 970 l 370 808 l 259 808 l 403 970 z "},"Ŗ":{"ha":885,"x_min":19,"x_max":903,"o":"m 19 0 l 213 970 l 627 970 q 857 737 903 970 q 530 444 819 548 l 772 0 l 620 0 l 399 436 l 415 518 q 722 732 688 562 q 594 866 749 866 l 317 866 l 144 0 l 19 0 m 435 -68 l 295 -258 l 170 -258 l 309 -68 l 435 -68 z "},"ŗ":{"ha":481,"x_min":-146,"x_max":515,"o":"m 6 0 l 149 712 l 260 712 l 229 486 q 515 712 349 712 l 492 601 q 208 382 331 601 l 132 0 l 6 0 m 119 -68 l -20 -258 l -146 -258 l -6 -68 l 119 -68 z "},"Ŝ":{"ha":875,"x_min":12,"x_max":864,"o":"m 12 34 l 35 149 q 354 95 177 95 q 641 278 604 95 q 488 434 672 434 l 363 434 q 111 699 58 434 q 557 977 167 977 q 864 936 726 977 l 841 821 q 536 875 706 875 q 237 699 272 875 q 385 543 205 543 l 509 543 q 766 278 819 543 q 334 -7 709 -7 q 12 34 157 -7 m 538 1227 l 640 1227 l 724 1051 l 622 1051 l 576 1160 l 486 1051 l 385 1051 l 538 1227 z "},"ŝ":{"ha":692,"x_min":-8,"x_max":650,"o":"m -8 34 l 14 142 q 259 102 131 102 q 450 203 429 102 q 350 298 469 298 l 255 298 q 66 509 24 298 q 404 712 107 712 q 650 678 531 712 l 628 570 q 383 610 511 610 q 185 509 205 610 q 278 414 166 414 l 373 414 q 575 203 617 414 q 239 0 534 0 q -8 34 111 0 m 399 970 l 501 970 l 585 793 l 483 793 l 437 902 l 347 793 l 245 793 l 399 970 z "},"Ş":{"ha":875,"x_min":12,"x_max":864,"o":"m 239 -3 q 12 34 117 4 l 35 149 q 354 95 177 95 q 641 278 604 95 q 488 434 672 434 l 363 434 q 111 699 58 434 q 557 977 167 977 q 864 936 726 977 l 841 821 q 536 875 706 875 q 237 699 272 875 q 385 543 205 543 l 509 543 q 766 278 819 543 q 334 -7 709 -7 l 327 -7 l 294 -52 q 415 -169 439 -52 q 229 -286 392 -286 q 89 -252 155 -286 l 103 -179 q 243 -213 170 -213 q 325 -169 316 -213 q 277 -125 334 -125 l 153 -125 l 239 -3 z "},"ş":{"ha":692,"x_min":-8,"x_max":650,"o":"m 198 1 q -8 34 92 5 l 14 142 q 259 102 131 102 q 450 203 429 102 q 350 298 469 298 l 255 298 q 66 509 24 298 q 404 712 107 712 q 650 678 531 712 l 628 570 q 383 610 511 610 q 185 509 205 610 q 278 414 166 414 l 373 414 q 575 203 617 414 q 288 1 538 18 l 250 -52 q 371 -169 395 -52 q 184 -286 348 -286 q 45 -252 111 -286 l 59 -179 q 199 -213 125 -213 q 281 -169 272 -213 q 233 -125 290 -125 l 109 -125 l 198 1 z "},"Ș":{"ha":875,"x_min":12,"x_max":864,"o":"m 12 34 l 35 149 q 354 95 177 95 q 641 278 604 95 q 488 434 672 434 l 363 434 q 111 699 58 434 q 557 977 167 977 q 864 936 726 977 l 841 821 q 536 875 706 875 q 237 699 272 875 q 385 543 205 543 l 509 543 q 766 278 819 543 q 334 -7 709 -7 q 12 34 157 -7 m 408 -68 l 268 -258 l 142 -258 l 282 -68 l 408 -68 z "},"ș":{"ha":692,"x_min":-8,"x_max":650,"o":"m -8 34 l 14 142 q 259 102 131 102 q 450 203 429 102 q 350 298 469 298 l 255 298 q 66 509 24 298 q 404 712 107 712 q 650 678 531 712 l 628 570 q 383 610 511 610 q 185 509 205 610 q 278 414 166 414 l 373 414 q 575 203 617 414 q 239 0 534 0 q -8 34 111 0 m 350 -68 l 210 -258 l 85 -258 l 224 -68 l 350 -68 z "},"Ţ":{"ha":804,"x_min":85,"x_max":867,"o":"m 867 970 l 847 868 l 542 868 l 368 0 l 243 0 l 416 868 l 111 868 l 132 970 l 867 970 m 350 -68 l 210 -258 l 85 -258 l 224 -68 l 350 -68 z "},"ţ":{"ha":458,"x_min":-63,"x_max":446,"o":"m 171 827 l 250 827 l 254 712 l 446 712 l 426 610 l 253 610 l 171 201 q 237 102 151 102 l 324 102 l 304 0 l 184 0 q 44 192 5 0 l 171 827 m 202 -68 l 62 -258 l -63 -258 l 77 -68 l 202 -68 z "},"Ŧ":{"ha":804,"x_min":24,"x_max":867,"o":"m 350 536 l 416 868 l 111 868 l 132 970 l 867 970 l 847 868 l 542 868 l 475 536 l 781 536 l 760 434 l 455 434 l 368 0 l 243 0 l 330 434 l 24 434 l 45 536 l 350 536 z "},"ŧ":{"ha":458,"x_min":-31,"x_max":446,"o":"m 92 429 l 171 827 l 250 827 l 254 712 l 446 712 l 426 610 l 253 610 l 217 429 l 390 429 l 370 328 l 197 328 l 172 201 q 237 102 151 102 l 324 102 l 304 0 l 184 0 q 44 192 5 0 l 71 328 l -31 328 l -10 429 l 92 429 z "},"Ũ":{"ha":1024,"x_min":11,"x_max":1013,"o":"m 87 374 l 206 970 l 332 970 l 212 374 q 435 95 157 95 q 768 374 713 95 l 888 970 l 1013 970 l 894 374 q 414 -7 818 -7 q 87 374 11 -7 m 475 1196 q 569 1227 522 1227 q 640 1210 604 1227 q 714 1192 676 1192 q 819 1223 765 1192 l 799 1122 q 705 1090 752 1090 q 633 1108 669 1090 q 559 1126 597 1126 q 454 1095 509 1126 l 475 1196 z "},"ũ":{"ha":817,"x_min":5,"x_max":762,"o":"m 762 712 l 619 0 l 507 0 l 538 220 q 204 0 403 0 q 52 231 5 0 l 148 712 l 273 712 l 177 229 q 276 104 152 104 q 559 330 418 104 l 636 712 l 762 712 m 331 939 q 425 970 378 970 q 496 952 460 970 q 570 935 532 935 q 675 966 621 935 l 655 864 q 561 833 608 833 q 490 850 526 833 q 416 868 454 868 q 311 837 365 868 l 331 939 z "},"Ū":{"ha":1024,"x_min":11,"x_max":1013,"o":"m 87 374 l 206 970 l 332 970 l 212 374 q 435 95 157 95 q 768 374 713 95 l 888 970 l 1013 970 l 894 374 q 414 -7 818 -7 q 87 374 11 -7 m 820 1227 l 800 1126 l 460 1126 l 481 1227 l 820 1227 z "},"ū":{"ha":817,"x_min":5,"x_max":762,"o":"m 762 712 l 619 0 l 507 0 l 538 220 q 204 0 403 0 q 52 231 5 0 l 148 712 l 273 712 l 177 229 q 276 104 152 104 q 559 330 418 104 l 636 712 l 762 712 m 676 970 l 656 868 l 317 868 l 337 970 l 676 970 z "},"Ŭ":{"ha":1024,"x_min":11,"x_max":1013,"o":"m 87 374 l 206 970 l 332 970 l 212 374 q 435 95 157 95 q 768 374 713 95 l 888 970 l 1013 970 l 894 374 q 414 -7 818 -7 q 87 374 11 -7 m 471 1227 l 562 1227 q 630 1126 542 1126 q 739 1227 718 1126 l 830 1227 q 615 1051 795 1051 q 471 1227 435 1051 z "},"ŭ":{"ha":817,"x_min":5,"x_max":762,"o":"m 762 712 l 619 0 l 507 0 l 538 220 q 204 0 403 0 q 52 231 5 0 l 148 712 l 273 712 l 177 229 q 276 104 152 104 q 559 330 418 104 l 636 712 l 762 712 m 327 970 l 418 970 q 486 868 398 868 q 595 970 574 868 l 686 970 q 471 793 651 793 q 327 970 292 793 z "},"Ű":{"ha":1024,"x_min":11,"x_max":1013,"o":"m 87 374 l 206 970 l 332 970 l 212 374 q 435 95 157 95 q 768 374 713 95 l 888 970 l 1013 970 l 894 374 q 414 -7 818 -7 q 87 374 11 -7 m 538 1227 l 701 1227 l 506 1065 l 395 1065 l 538 1227 m 793 1227 l 956 1227 l 761 1065 l 650 1065 l 793 1227 z "},"ű":{"ha":817,"x_min":5,"x_max":811,"o":"m 762 712 l 619 0 l 507 0 l 538 220 q 204 0 403 0 q 52 231 5 0 l 148 712 l 273 712 l 177 229 q 276 104 152 104 q 559 330 418 104 l 636 712 l 762 712 m 394 970 l 556 970 l 361 808 l 250 808 l 394 970 m 649 970 l 811 970 l 616 808 l 505 808 l 649 970 z "},"Ų":{"ha":1024,"x_min":14,"x_max":1013,"o":"m 380 -6 q 87 374 14 9 l 206 970 l 332 970 l 213 374 q 435 95 157 95 q 769 374 713 95 l 888 970 l 1013 970 l 895 374 q 516 0 828 44 q 355 -155 368 -85 q 403 -201 345 -201 q 498 -187 460 -201 l 481 -275 q 377 -289 437 -289 q 244 -172 220 -289 q 380 -6 261 -86 z "},"ų":{"ha":817,"x_min":5,"x_max":762,"o":"m 619 0 q 451 -155 465 -85 q 500 -201 442 -201 q 595 -187 557 -201 l 578 -275 q 474 -289 534 -289 q 340 -172 317 -289 q 507 0 359 -83 l 538 220 q 204 0 403 0 q 52 231 5 0 l 148 712 l 273 712 l 177 229 q 276 104 152 104 q 559 330 418 104 l 636 712 l 762 712 l 619 0 z "},"Ŵ":{"ha":1289,"x_min":97,"x_max":1352,"o":"m 132 970 l 253 970 l 220 126 l 663 970 l 789 970 l 913 126 l 1236 970 l 1352 970 l 976 0 l 805 0 l 694 812 l 266 0 l 97 0 l 132 970 m 717 1227 l 819 1227 l 902 1051 l 800 1051 l 754 1160 l 665 1051 l 563 1051 l 717 1227 z "},"ŵ":{"ha":1136,"x_min":-15,"x_max":1070,"o":"m 195 712 l 321 712 q 185 373 222 559 q 277 102 131 102 q 484 373 429 102 l 551 712 l 677 712 l 609 373 q 707 102 555 102 q 907 373 853 102 q 907 712 945 559 l 1033 712 q 1033 373 1070 559 q 687 0 958 0 q 505 176 528 0 q 256 0 416 0 q 60 373 -15 0 q 195 712 97 559 m 615 970 l 717 970 l 800 793 l 699 793 l 652 902 l 563 793 l 461 793 l 615 970 z "},"Ŷ":{"ha":882,"x_min":115,"x_max":962,"o":"m 115 970 l 249 970 l 427 463 l 812 970 l 962 970 l 466 339 l 398 0 l 273 0 l 340 339 l 115 970 m 522 1227 l 623 1227 l 707 1051 l 605 1051 l 559 1160 l 469 1051 l 368 1051 l 522 1227 z "},"ŷ":{"ha":817,"x_min":5,"x_max":762,"o":"m 538 220 q 204 0 403 0 q 52 231 5 0 l 148 712 l 273 712 l 177 229 q 276 104 152 104 q 559 330 418 104 l 636 712 l 762 712 l 619 0 q 240 -258 568 -258 q 14 -224 109 -258 l 34 -122 q 262 -156 131 -156 q 494 0 463 -156 l 538 220 m 456 970 l 557 970 l 641 793 l 539 793 l 493 902 l 404 793 l 302 793 l 456 970 z "},"ſ":{"ha":343,"x_min":-119,"x_max":646,"o":"m 155 747 q 486 1005 206 1005 q 646 978 573 1005 l 625 876 q 465 903 557 903 q 281 752 311 903 l 142 54 q -28 -270 98 -161 l -119 -199 q 16 54 -16 -107 l 155 747 z "},"Ё":{"ha":834,"x_min":19,"x_max":847,"o":"m 847 970 l 827 868 l 318 868 l 253 543 l 738 543 l 718 441 l 233 441 l 165 102 l 684 102 l 663 0 l 19 0 l 213 970 l 847 970 m 764 1227 l 741 1112 l 616 1112 l 639 1227 l 764 1227 m 513 1227 l 490 1112 l 365 1112 l 388 1227 l 513 1227 z "},"А":{"ha":998,"x_min":-79,"x_max":885,"o":"m 58 0 l -79 0 l 526 970 l 665 970 l 885 0 l 753 0 l 688 305 l 368 305 l 422 407 l 667 407 l 574 846 l 58 0 z "},"Б":{"ha":889,"x_min":19,"x_max":892,"o":"m 892 970 l 871 868 l 319 868 l 166 104 l 442 104 q 637 273 604 104 q 475 454 673 454 l 348 454 l 368 556 l 502 556 q 764 280 819 556 q 433 0 708 0 l 19 0 l 213 970 l 892 970 z "},"В":{"ha":902,"x_min":19,"x_max":903,"o":"m 19 0 l 213 970 l 627 970 q 858 744 903 970 q 631 507 825 578 q 779 287 816 471 q 418 0 722 0 l 19 0 m 431 102 q 640 278 605 102 q 442 450 675 450 l 388 450 l 404 532 q 722 732 690 569 q 595 868 749 868 l 318 868 l 165 102 l 431 102 z "},"Г":{"ha":748,"x_min":19,"x_max":846,"o":"m 19 0 l 213 970 l 846 970 l 825 868 l 318 868 l 144 0 l 19 0 z "},"Д":{"ha":1152,"x_min":-148,"x_max":1074,"o":"m 262 102 l 774 102 l 928 868 l 609 868 q 262 102 481 231 m -148 -258 l -76 102 l 49 102 q 484 868 330 102 l 504 970 l 1074 970 l 900 102 l 1025 102 l 954 -258 l 828 -258 l 880 0 l 28 0 l -23 -258 l -148 -258 z "},"Е":{"ha":834,"x_min":19,"x_max":847,"o":"m 847 970 l 827 868 l 318 868 l 253 543 l 738 543 l 718 441 l 233 441 l 165 102 l 684 102 l 663 0 l 19 0 l 213 970 l 847 970 z "},"Ж":{"ha":1430,"x_min":-79,"x_max":1487,"o":"m 1179 0 q 973 418 1022 366 q 857 470 924 470 l 875 560 q 1135 765 983 560 q 1415 970 1287 970 l 1487 970 l 1466 861 l 1412 861 q 1216 701 1339 861 q 1010 514 1093 541 q 1106 438 1059 505 q 1317 0 1154 370 l 1179 0 m 876 970 l 682 0 l 556 0 l 750 970 l 876 970 m -79 0 q 307 438 232 370 q 434 514 381 505 q 309 701 368 541 q 170 861 250 861 l 117 861 l 138 970 l 211 970 q 408 765 338 970 q 587 560 478 560 l 569 470 q 446 418 516 470 q 73 0 376 366 l -79 0 z "},"З":{"ha":756,"x_min":-22,"x_max":787,"o":"m 159 936 q 438 977 302 977 q 734 712 787 977 q 563 492 703 552 q 646 271 679 434 q 241 -7 591 -7 q -22 34 106 -7 l 0 142 q 262 95 126 95 q 521 271 486 95 q 384 441 555 441 l 161 441 l 182 543 l 402 543 q 609 712 575 543 q 418 875 642 875 q 137 827 282 875 l 159 936 z "},"И":{"ha":1034,"x_min":19,"x_max":1017,"o":"m 704 0 l 864 802 l 144 0 l 19 0 l 213 970 l 332 970 l 172 168 l 891 970 l 1017 970 l 823 0 l 704 0 z "},"Й":{"ha":1034,"x_min":19,"x_max":1017,"o":"m 704 0 l 864 802 l 144 0 l 19 0 l 213 970 l 332 970 l 172 168 l 891 970 l 1017 970 l 823 0 l 704 0 m 478 1210 l 570 1210 q 643 1101 548 1101 q 760 1210 738 1101 l 851 1210 q 628 1027 814 1027 q 478 1210 441 1027 z "},"К":{"ha":893,"x_min":19,"x_max":950,"o":"m 628 0 q 422 418 471 366 q 320 470 373 470 l 338 560 q 598 765 446 560 q 878 970 750 970 l 950 970 l 928 861 l 875 861 q 679 701 802 861 q 473 514 555 541 q 569 438 522 505 q 780 0 616 370 l 628 0 m 338 970 l 144 0 l 19 0 l 213 970 l 338 970 z "},"Л":{"ha":1034,"x_min":-96,"x_max":1016,"o":"m -76 102 q 293 543 205 102 l 378 970 l 1016 970 l 822 0 l 696 0 l 870 868 l 484 868 l 418 543 q -96 0 310 0 l -76 102 z "},"М":{"ha":1248,"x_min":19,"x_max":1230,"o":"m 19 0 l 213 970 l 372 970 l 566 161 l 1078 970 l 1230 970 l 1036 0 l 924 0 l 1081 782 l 580 0 l 481 0 l 288 782 l 131 0 l 19 0 z "},"Н":{"ha":1034,"x_min":19,"x_max":1017,"o":"m 19 0 l 213 970 l 338 970 l 254 549 l 807 549 l 891 970 l 1017 970 l 823 0 l 697 0 l 787 448 l 234 448 l 144 0 l 19 0 z "},"О":{"ha":1129,"x_min":-16,"x_max":1147,"o":"m 215 488 q 491 95 136 95 q 917 488 838 95 q 647 875 994 875 q 215 488 292 875 m 82 484 q 667 977 180 977 q 1048 484 1147 977 q 471 -7 950 -7 q 82 484 -16 -7 z "},"П":{"ha":1034,"x_min":19,"x_max":1017,"o":"m 19 0 l 213 970 l 1017 970 l 823 0 l 697 0 l 871 868 l 318 868 l 144 0 l 19 0 z "},"Р":{"ha":857,"x_min":19,"x_max":903,"o":"m 19 0 l 213 970 l 606 970 q 851 710 903 970 q 376 365 795 427 l 372 471 q 717 705 679 515 q 574 866 749 866 l 317 866 l 144 0 l 19 0 z "},"С":{"ha":939,"x_min":-30,"x_max":939,"o":"m 758 34 q 479 -7 625 -7 q 71 498 -30 -7 q 675 977 167 977 q 939 936 821 977 l 917 827 q 669 875 801 875 q 197 498 272 875 q 513 95 116 95 q 780 142 645 95 l 758 34 z "},"Т":{"ha":804,"x_min":111,"x_max":867,"o":"m 867 970 l 847 868 l 542 868 l 368 0 l 243 0 l 416 868 l 111 868 l 132 970 l 867 970 z "},"У":{"ha":886,"x_min":24,"x_max":967,"o":"m 967 970 l 475 182 q 175 0 361 0 q 24 47 88 0 l 45 149 q 186 102 107 102 q 350 184 291 102 l 132 970 l 257 970 l 438 304 l 830 970 l 967 970 z "},"Ф":{"ha":1169,"x_min":-8,"x_max":1179,"o":"m 441 77 q 68 484 -8 102 q 604 893 145 868 l 620 970 l 745 970 l 730 894 q 1102 484 1179 871 q 566 76 1025 98 l 551 0 l 426 0 l 441 77 m 462 179 l 584 791 q 201 488 256 766 q 462 179 144 204 m 709 791 l 587 178 q 971 488 913 201 q 709 791 1027 769 z "},"Х":{"ha":956,"x_min":-79,"x_max":1030,"o":"m 399 485 l 115 970 l 260 970 l 488 582 l 871 970 l 1030 970 l 552 485 l 836 0 l 690 0 l 463 388 l 80 0 l -79 0 l 399 485 z "},"Ц":{"ha":1063,"x_min":19,"x_max":967,"o":"m 19 0 l 213 970 l 338 970 l 165 102 l 668 102 l 842 970 l 967 970 l 793 102 l 919 102 l 847 -258 l 722 -258 l 773 0 l 19 0 z "},"Ч":{"ha":955,"x_min":59,"x_max":937,"o":"m 937 970 l 743 0 l 618 0 l 704 430 q 397 353 555 353 q 124 679 59 353 l 182 970 l 308 970 l 250 677 q 435 457 205 457 q 727 547 591 457 l 812 970 l 937 970 z "},"Ш":{"ha":1272,"x_min":19,"x_max":1254,"o":"m 19 0 l 213 970 l 338 970 l 165 102 l 497 102 l 671 970 l 796 970 l 623 102 l 955 102 l 1128 970 l 1254 970 l 1060 0 l 19 0 z "},"Щ":{"ha":1350,"x_min":19,"x_max":1254,"o":"m 19 0 l 213 970 l 338 970 l 165 102 l 497 102 l 671 970 l 796 970 l 623 102 l 955 102 l 1128 970 l 1254 970 l 1080 102 l 1206 102 l 1134 -258 l 1008 -258 l 1060 0 l 19 0 z "},"Ъ":{"ha":1160,"x_min":155,"x_max":1122,"o":"m 715 970 l 370 104 l 646 104 q 874 273 808 104 q 749 454 947 454 l 622 454 l 663 556 l 797 556 q 1012 280 1122 556 q 616 0 899 0 l 202 0 l 549 868 l 155 868 l 195 970 l 715 970 z "},"Ы":{"ha":1190,"x_min":19,"x_max":1173,"o":"m 338 970 l 165 104 l 442 104 q 637 273 604 104 q 475 454 673 454 l 348 454 l 368 556 l 503 556 q 772 280 827 556 q 433 0 716 0 l 19 0 l 213 970 l 338 970 m 853 0 l 1047 970 l 1173 970 l 979 0 l 853 0 z "},"Ь":{"ha":880,"x_min":19,"x_max":827,"o":"m 338 970 l 165 104 l 442 104 q 637 273 604 104 q 475 454 673 454 l 348 454 l 368 556 l 502 556 q 772 280 827 556 q 433 0 716 0 l 19 0 l 213 970 l 338 970 z "},"Э":{"ha":932,"x_min":-5,"x_max":964,"o":"m 17 142 q 265 95 133 95 q 729 441 633 95 l 125 441 l 146 543 l 750 543 q 421 875 794 875 q 154 827 289 875 l 176 936 q 455 977 309 977 q 868 498 964 977 q 258 -7 767 -7 q -5 34 113 -7 l 17 142 z "},"Ю":{"ha":1371,"x_min":19,"x_max":1402,"o":"m 19 0 l 213 970 l 338 970 l 252 543 l 527 543 q 1011 977 637 977 q 1304 484 1402 977 q 814 -7 1206 -7 q 506 441 433 -7 l 232 441 l 144 0 l 19 0 m 835 95 q 1173 488 1094 95 q 991 875 1250 875 q 647 488 724 875 q 835 95 568 95 z "},"Я":{"ha":885,"x_min":-79,"x_max":867,"o":"m 548 0 l 721 866 l 444 866 q 263 732 290 866 q 498 518 229 562 l 481 429 l 79 0 l -79 0 l 345 440 q 127 724 90 534 q 467 970 177 970 l 867 970 l 673 0 l 548 0 z "},"а":{"ha":778,"x_min":-28,"x_max":716,"o":"m 572 591 q 444 608 538 608 q 165 348 216 608 q 257 109 117 109 q 511 281 402 109 l 572 591 m 580 0 l 468 0 l 488 170 q 214 0 374 0 q 41 347 -28 0 q 470 712 114 712 q 716 683 614 712 l 580 0 z "},"б":{"ha":819,"x_min":-13,"x_max":833,"o":"m 718 353 q 321 -7 646 -7 q 59 353 -13 -7 l 103 573 q 565 970 182 970 q 833 1044 702 970 l 810 933 q 543 868 694 868 q 233 580 291 868 q 472 712 347 712 q 721 369 789 712 l 718 353 m 342 95 q 591 353 540 95 q 451 606 642 606 q 188 353 239 606 q 342 95 136 95 z "},"в":{"ha":777,"x_min":-30,"x_max":745,"o":"m 349 95 q 518 210 495 95 q 374 312 538 312 l 319 312 l 336 394 q 574 536 551 418 q 463 617 591 617 q 168 356 220 617 q 349 95 116 95 m 322 -7 q 43 356 -30 -7 q 481 719 115 719 q 707 534 745 719 q 523 376 687 430 q 656 212 681 340 q 322 -7 612 -7 z "},"г":{"ha":671,"x_min":-28,"x_max":650,"o":"m 480 34 q 254 0 348 0 q 12 203 -28 0 q 298 414 54 414 l 359 414 q 490 509 471 414 q 347 610 511 610 q 119 570 253 610 l 141 678 q 367 712 273 712 q 609 509 650 712 q 336 298 567 298 l 275 298 q 138 203 157 298 q 274 102 117 102 q 502 142 368 102 l 480 34 z "},"д":{"ha":780,"x_min":-30,"x_max":810,"o":"m 568 391 q 589 556 585 476 q 416 617 547 617 q 168 366 218 617 q 312 95 113 95 q 568 391 509 95 m 694 393 q 291 -7 614 -7 q 45 366 -30 -7 q 415 712 114 712 q 590 651 522 712 q 312 868 571 868 l 199 868 l 220 970 l 334 970 q 694 393 810 970 z "},"е":{"ha":736,"x_min":-28,"x_max":721,"o":"m 441 712 q 680 509 721 712 q 387 313 641 313 l 159 313 q 318 102 117 102 q 585 190 473 102 l 565 88 q 298 0 453 0 q 44 364 -28 0 q 441 712 114 712 m 180 418 l 408 418 q 555 511 536 418 q 421 612 575 612 q 180 418 231 612 z "},"ж":{"ha":1408,"x_min":-18,"x_max":1375,"o":"m 967 471 q 1264 712 1054 712 q 1375 692 1318 712 l 1355 590 q 1237 610 1298 610 q 1053 349 1105 610 q 1128 102 1003 102 q 1268 156 1196 102 l 1248 54 q 1101 0 1176 0 q 934 349 864 0 l 937 367 l 733 325 l 668 0 l 543 0 l 602 298 l 395 256 q 94 0 310 0 q -18 20 39 0 l 3 122 q 121 102 60 102 q 305 363 253 102 q 229 610 355 610 q 90 556 161 610 l 110 658 q 256 712 182 712 q 424 363 494 712 l 423 359 l 623 400 l 685 712 l 810 712 l 753 427 l 967 471 z "},"з":{"ha":641,"x_min":-22,"x_max":621,"o":"m 107 678 q 339 719 237 719 q 581 521 621 719 q 456 363 560 416 q 519 210 539 312 q 194 -7 475 -7 q -22 34 92 -7 l 0 142 q 214 95 113 95 q 393 210 370 95 q 311 312 414 312 l 102 312 l 122 414 l 329 414 q 456 521 434 414 q 319 617 475 617 q 85 570 217 617 l 107 678 z "},"и":{"ha":817,"x_min":5,"x_max":762,"o":"m 762 712 l 619 0 l 507 0 l 538 220 q 204 0 403 0 q 52 231 5 0 l 148 712 l 273 712 l 177 229 q 276 104 152 104 q 559 330 418 104 l 636 712 l 762 712 z "},"й":{"ha":817,"x_min":5,"x_max":762,"o":"m 762 712 l 619 0 l 507 0 l 538 220 q 204 0 403 0 q 52 231 5 0 l 148 712 l 273 712 l 177 229 q 276 104 152 104 q 559 330 418 104 l 636 712 l 762 712 m 327 970 l 418 970 q 486 868 398 868 q 595 970 574 868 l 686 970 q 471 793 651 793 q 327 970 292 793 z "},"к":{"ha":749,"x_min":5,"x_max":754,"o":"m 497 0 l 431 167 q 264 334 364 334 l 280 418 q 471 565 389 418 q 682 712 554 712 l 754 712 l 732 604 l 679 604 q 551 504 606 604 q 406 372 496 405 q 559 179 482 357 l 635 0 l 497 0 m 273 712 l 131 0 l 5 0 l 148 712 l 273 712 z "},"л":{"ha":805,"x_min":-96,"x_max":749,"o":"m -76 102 q 121 285 85 102 l 155 451 q 478 712 207 712 l 749 712 l 607 0 l 481 0 l 604 610 l 458 610 q 281 454 312 610 l 247 285 q -96 0 190 0 l -76 102 z "},"м":{"ha":990,"x_min":5,"x_max":935,"o":"m 5 0 l 148 712 l 307 712 l 435 147 l 782 712 l 935 712 l 792 0 l 680 0 l 789 545 l 451 0 l 352 0 l 227 545 l 117 0 l 5 0 z "},"н":{"ha":804,"x_min":5,"x_max":748,"o":"m 5 0 l 148 712 l 273 712 l 214 414 l 563 414 l 623 712 l 748 712 l 606 0 l 480 0 l 543 312 l 193 312 l 131 0 l 5 0 z "},"о":{"ha":787,"x_min":-27,"x_max":765,"o":"m 169 359 q 317 102 117 102 q 569 359 517 102 q 419 610 619 610 q 169 359 219 610 m 43 356 q 439 712 114 712 q 694 356 765 712 q 297 1 623 1 q 43 356 -27 1 z "},"п":{"ha":817,"x_min":5,"x_max":762,"o":"m 5 0 l 148 712 l 260 712 l 229 492 q 563 712 364 712 q 715 481 762 712 l 619 0 l 494 0 l 590 483 q 491 608 615 608 q 208 382 349 608 l 131 0 l 5 0 z "},"р":{"ha":779,"x_min":-46,"x_max":757,"o":"m 239 543 q 514 712 354 712 q 691 384 757 712 q 260 0 614 0 q 132 6 190 0 l 79 -258 l -46 -258 l 148 712 l 260 712 l 239 543 m 217 431 l 156 124 q 275 104 186 104 q 568 382 512 104 q 471 604 612 604 q 217 431 326 604 z "},"с":{"ha":654,"x_min":-28,"x_max":639,"o":"m 518 88 q 270 0 412 0 q 44 363 -28 0 q 453 712 114 712 q 639 692 555 712 l 618 590 q 426 610 534 610 q 170 363 219 610 q 297 102 117 102 q 538 190 433 102 l 518 88 z "},"т":{"ha":1224,"x_min":5,"x_max":1168,"o":"m 5 0 l 148 712 l 260 712 l 231 500 q 545 712 356 712 q 673 506 714 712 q 991 712 804 712 q 1122 483 1168 712 l 1026 0 l 901 0 l 997 483 q 922 608 1022 608 q 655 382 787 608 l 578 0 l 453 0 l 549 483 q 475 608 574 608 q 208 382 336 608 l 131 0 l 5 0 z "},"у":{"ha":712,"x_min":-15,"x_max":742,"o":"m 63 712 l 199 712 l 290 156 l 609 712 l 742 712 l 300 -21 q 16 -263 182 -215 l -15 -174 q 193 -4 115 -122 l 63 712 z "},"ф":{"ha":1228,"x_min":-28,"x_max":1206,"o":"m 689 543 q 964 712 804 712 q 1141 384 1206 712 q 709 0 1064 0 q 582 6 640 0 l 529 -258 l 404 -258 l 489 170 q 214 0 374 0 q 37 328 -28 0 q 469 712 114 712 q 596 706 538 712 l 649 970 l 774 970 l 689 543 m 572 588 q 454 608 542 608 q 161 330 216 608 q 257 109 117 109 q 511 281 402 109 l 572 588 m 606 124 q 724 104 636 104 q 1017 382 962 104 q 921 604 1061 604 q 667 431 776 604 l 606 124 z "},"х":{"ha":692,"x_min":-79,"x_max":721,"o":"m 66 0 l -79 0 l 248 356 l 63 712 l 202 712 l 331 441 l 575 712 l 721 712 l 393 356 l 578 0 l 439 0 l 311 271 l 66 0 z "},"ц":{"ha":875,"x_min":5,"x_max":765,"o":"m 634 75 l 765 102 q 625 -258 729 -78 l 500 -258 q 625 27 593 -129 l 507 0 l 538 220 q 204 0 403 0 q 52 231 5 0 l 148 712 l 273 712 l 177 229 q 276 104 152 104 q 559 330 418 104 l 636 712 l 762 712 l 634 75 z "},"ч":{"ha":826,"x_min":29,"x_max":770,"o":"m 770 712 l 628 0 l 503 0 l 559 281 q 307 203 444 203 q 85 482 29 203 l 131 712 l 256 712 l 210 480 q 345 308 176 308 q 582 398 479 308 l 645 712 l 770 712 z "},"ш":{"ha":1224,"x_min":5,"x_max":1168,"o":"m 1168 712 l 1026 0 l 914 0 l 943 212 q 629 0 818 0 q 501 206 460 0 q 183 0 370 0 q 52 229 5 0 l 148 712 l 273 712 l 177 229 q 252 104 152 104 q 519 330 387 104 l 595 712 l 721 712 l 625 229 q 699 104 600 104 q 966 330 838 104 l 1043 712 l 1168 712 z "},"щ":{"ha":1282,"x_min":5,"x_max":1172,"o":"m 1041 75 l 1172 102 q 1032 -258 1136 -78 l 907 -258 q 1031 27 1000 -129 l 914 0 l 943 212 q 629 0 818 0 q 501 206 460 0 q 183 0 370 0 q 52 229 5 0 l 148 712 l 273 712 l 177 229 q 252 104 152 104 q 519 330 387 104 l 595 712 l 721 712 l 625 229 q 699 104 600 104 q 966 330 838 104 l 1043 712 l 1168 712 l 1041 75 z "},"ъ":{"ha":917,"x_min":26,"x_max":838,"o":"m 432 712 l 338 243 q 465 104 311 104 q 671 225 647 104 q 568 325 691 325 l 447 325 l 467 427 l 595 427 q 797 219 838 427 q 449 0 753 0 q 213 243 164 0 l 286 610 l 26 610 l 46 712 l 432 712 z "},"ы":{"ha":1024,"x_min":5,"x_max":968,"o":"m 701 0 l 843 712 l 968 712 l 826 0 l 701 0 m 273 712 l 180 243 q 320 104 152 104 q 512 225 488 104 q 409 325 532 325 l 288 325 l 309 427 l 435 427 q 638 219 680 427 q 304 0 594 0 q 54 243 5 0 l 148 712 l 273 712 z "},"ь":{"ha":792,"x_min":5,"x_max":680,"o":"m 273 712 l 180 243 q 320 104 152 104 q 512 225 488 104 q 409 325 532 325 l 288 325 l 309 427 l 435 427 q 638 219 680 427 q 304 0 594 0 q 54 243 5 0 l 148 712 l 273 712 z "},"э":{"ha":685,"x_min":-24,"x_max":663,"o":"m -4 122 q 168 102 80 102 q 454 313 385 102 l 77 313 l 98 414 l 475 414 q 270 610 490 610 q 90 590 182 610 l 110 692 q 304 712 202 712 q 595 370 663 712 q 161 0 521 0 q -24 20 60 0 l -4 122 z "},"ю":{"ha":1154,"x_min":5,"x_max":1134,"o":"m 699 95 q 930 359 877 95 q 804 617 981 617 q 567 359 618 617 q 699 95 514 95 m 5 0 l 148 712 l 273 712 l 213 414 l 448 414 q 824 719 534 719 q 1061 355 1134 719 q 679 -7 989 -7 q 427 312 381 -7 l 193 312 l 130 0 l 5 0 z "},"я":{"ha":777,"x_min":-79,"x_max":721,"o":"m 453 0 l 574 608 l 332 608 q 222 528 238 608 q 412 389 203 433 l 394 300 l 79 0 l -79 0 l 260 318 q 94 558 60 384 q 355 712 125 712 l 721 712 l 578 0 l 453 0 z "},"ё":{"ha":736,"x_min":-28,"x_max":721,"o":"m 441 712 q 680 509 721 712 q 387 313 641 313 l 159 313 q 318 102 117 102 q 585 190 473 102 l 565 88 q 298 0 453 0 q 44 364 -28 0 q 441 712 114 712 m 180 418 l 408 418 q 555 511 536 418 q 421 612 575 612 q 180 418 231 612 m 664 970 l 641 854 l 515 854 l 538 970 l 664 970 m 413 970 l 390 854 l 264 854 l 288 970 l 413 970 z "},";":{"ha":363,"x_min":-62,"x_max":341,"o":"m 341 712 l 316 587 l 191 587 l 216 712 l 341 712 m 224 125 l 63 -170 l -62 -170 l 98 125 l 224 125 z "},"΄":{"ha":409,"x_min":133,"x_max":439,"o":"m 277 970 l 439 970 l 244 808 l 133 808 l 277 970 z "},"΅":{"ha":709,"x_min":142,"x_max":739,"o":"m 739 970 l 715 854 l 590 854 l 613 970 l 739 970 m 291 970 l 268 854 l 142 854 l 165 970 l 291 970 m 412 970 l 574 970 l 380 808 l 269 808 l 412 970 z "},"Ά":{"ha":998,"x_min":-79,"x_max":885,"o":"m 277 970 l 439 970 l 244 808 l 133 808 l 277 970 z "},"·":{"ha":261,"x_min":89,"x_max":239,"o":"m 239 712 l 214 587 l 89 587 l 114 712 l 239 712 z "},"Έ":{"ha":1006,"x_min":31,"x_max":1019,"o":"m 175 970 l 337 970 l 142 808 l 31 808 l 175 970 m 1019 970 l 998 868 l 490 868 l 425 543 l 909 543 l 889 441 l 404 441 l 336 102 l 855 102 l 835 0 l 191 0 l 385 970 l 1019 970 z "},"Ή":{"ha":1226,"x_min":31,"x_max":1208,"o":"m 175 970 l 337 970 l 142 808 l 31 808 l 175 970 m 191 0 l 385 970 l 510 970 l 425 543 l 998 543 l 1083 970 l 1208 970 l 1015 0 l 889 0 l 977 441 l 404 441 l 316 0 l 191 0 z "},"Ί":{"ha":568,"x_min":31,"x_max":530,"o":"m 175 970 l 337 970 l 142 808 l 31 808 l 175 970 m 530 970 l 336 0 l 211 0 l 405 970 l 530 970 z "},"Ό":{"ha":1199,"x_min":31,"x_max":1217,"o":"m 175 970 l 337 970 l 142 808 l 31 808 l 175 970 m 285 488 q 561 95 206 95 q 987 488 908 95 q 717 875 1064 875 q 285 488 362 875 m 151 484 q 737 977 250 977 q 1118 484 1217 977 q 541 -7 1020 -7 q 151 484 54 -7 z "},"Ύ":{"ha":1121,"x_min":31,"x_max":1202,"o":"m 175 970 l 337 970 l 142 808 l 31 808 l 175 970 m 354 970 l 493 970 l 671 463 l 1056 970 l 1202 970 l 705 339 l 637 0 l 512 0 l 580 339 l 354 970 z "},"Ώ":{"ha":1162,"x_min":31,"x_max":1181,"o":"m 175 970 l 337 970 l 142 808 l 31 808 l 175 970 m 65 0 l 85 102 l 292 102 q 163 543 112 285 q 716 983 252 983 q 1093 543 1181 983 q 787 102 1041 285 l 994 102 l 974 0 l 601 0 l 621 102 q 967 543 916 285 q 696 882 1035 882 q 289 543 357 882 q 458 102 237 285 l 438 0 l 65 0 z "},"ΐ":{"ha":356,"x_min":14,"x_max":610,"o":"m 287 712 l 144 0 l 19 0 l 161 712 l 287 712 m 610 970 l 587 854 l 461 854 l 484 970 l 610 970 m 162 970 l 139 854 l 14 854 l 37 970 l 162 970 m 283 970 l 446 970 l 251 808 l 140 808 l 283 970 z "},"Α":{"ha":998,"x_min":-79,"x_max":885,"o":"m 58 0 l -79 0 l 526 970 l 665 970 l 885 0 l 753 0 l 688 305 l 368 305 l 422 407 l 667 407 l 574 846 l 58 0 z "},"Β":{"ha":902,"x_min":19,"x_max":903,"o":"m 19 0 l 213 970 l 627 970 q 858 744 903 970 q 631 507 825 578 q 779 287 816 471 q 418 0 722 0 l 19 0 m 431 102 q 640 278 605 102 q 442 450 675 450 l 388 450 l 404 532 q 722 732 690 569 q 595 868 749 868 l 318 868 l 165 102 l 431 102 z "},"Γ":{"ha":748,"x_min":19,"x_max":846,"o":"m 19 0 l 213 970 l 846 970 l 825 868 l 318 868 l 144 0 l 19 0 z "},"Ε":{"ha":834,"x_min":19,"x_max":847,"o":"m 847 970 l 827 868 l 318 868 l 253 543 l 738 543 l 718 441 l 233 441 l 165 102 l 684 102 l 663 0 l 19 0 l 213 970 l 847 970 z "},"Ζ":{"ha":902,"x_min":-12,"x_max":915,"o":"m 915 970 l 895 868 l 160 102 l 728 102 l 707 0 l -12 0 l 9 102 l 748 868 l 176 868 l 196 970 l 915 970 z "},"Η":{"ha":1055,"x_min":19,"x_max":1037,"o":"m 19 0 l 213 970 l 338 970 l 253 543 l 826 543 l 911 970 l 1037 970 l 843 0 l 718 0 l 806 441 l 233 441 l 144 0 l 19 0 z "},"Θ":{"ha":1129,"x_min":-16,"x_max":1147,"o":"m 215 488 q 491 95 136 95 q 917 488 838 95 q 647 875 994 875 q 215 488 292 875 m 82 484 q 667 977 180 977 q 1048 484 1147 977 q 471 -7 950 -7 q 82 484 -16 -7 m 349 551 l 806 551 l 786 450 l 328 450 l 349 551 z "},"Ι":{"ha":397,"x_min":39,"x_max":359,"o":"m 359 970 l 165 0 l 39 0 l 233 970 l 359 970 z "},"Κ":{"ha":983,"x_min":19,"x_max":1007,"o":"m 338 970 l 144 0 l 19 0 l 213 970 l 338 970 m 1007 970 l 471 508 l 857 0 l 689 0 l 348 473 l 363 549 l 842 970 l 1007 970 z "},"Λ":{"ha":998,"x_min":-79,"x_max":885,"o":"m -79 0 l 526 970 l 665 970 l 885 0 l 753 0 l 572 840 l 58 0 l -79 0 z "},"Μ":{"ha":1248,"x_min":19,"x_max":1230,"o":"m 19 0 l 213 970 l 372 970 l 566 161 l 1078 970 l 1230 970 l 1036 0 l 924 0 l 1081 782 l 580 0 l 481 0 l 288 782 l 131 0 l 19 0 z "},"Ν":{"ha":1068,"x_min":19,"x_max":1050,"o":"m 19 0 l 213 970 l 338 970 l 773 177 l 932 970 l 1050 970 l 857 0 l 731 0 l 298 806 l 138 0 l 19 0 z "},"Ξ":{"ha":811,"x_min":-28,"x_max":841,"o":"m -7 109 l 669 109 l 647 0 l -28 0 l -7 109 m 165 970 l 841 970 l 819 861 l 144 861 l 165 970 m 123 551 l 717 551 l 695 443 l 101 443 l 123 551 z "},"Ο":{"ha":1129,"x_min":-16,"x_max":1147,"o":"m 215 488 q 491 95 136 95 q 917 488 838 95 q 647 875 994 875 q 215 488 292 875 m 82 484 q 667 977 180 977 q 1048 484 1147 977 q 471 -7 950 -7 q 82 484 -16 -7 z "},"Π":{"ha":1034,"x_min":19,"x_max":1017,"o":"m 19 0 l 213 970 l 1017 970 l 823 0 l 697 0 l 871 868 l 318 868 l 144 0 l 19 0 z "},"Ρ":{"ha":857,"x_min":19,"x_max":903,"o":"m 19 0 l 213 970 l 606 970 q 851 710 903 970 q 376 365 795 427 l 372 471 q 717 705 679 515 q 574 866 749 866 l 317 866 l 144 0 l 19 0 z "},"Σ":{"ha":800,"x_min":-28,"x_max":830,"o":"m 165 970 l 830 970 l 810 868 l 281 868 l 494 509 l 141 102 l 656 102 l 636 0 l -28 0 l -8 102 l 355 515 l 145 868 l 165 970 z "},"Τ":{"ha":804,"x_min":111,"x_max":867,"o":"m 867 970 l 847 868 l 542 868 l 368 0 l 243 0 l 416 868 l 111 868 l 132 970 l 867 970 z "},"Υ":{"ha":882,"x_min":115,"x_max":962,"o":"m 115 970 l 249 970 l 427 463 l 812 970 l 962 970 l 466 339 l 398 0 l 273 0 l 340 339 l 115 970 z "},"Φ":{"ha":1169,"x_min":-8,"x_max":1179,"o":"m 441 77 q 68 484 -8 102 q 604 893 145 868 l 620 970 l 745 970 l 730 894 q 1102 484 1179 871 q 566 76 1025 98 l 551 0 l 426 0 l 441 77 m 462 179 l 584 791 q 201 488 256 766 q 462 179 144 204 m 709 791 l 587 178 q 971 488 913 201 q 709 791 1027 769 z "},"Χ":{"ha":956,"x_min":-79,"x_max":1030,"o":"m 399 485 l 115 970 l 260 970 l 488 582 l 871 970 l 1030 970 l 552 485 l 836 0 l 690 0 l 463 388 l 80 0 l -79 0 l 399 485 z "},"Ψ":{"ha":1146,"x_min":47,"x_max":1162,"o":"m 492 389 l 608 970 l 733 970 l 616 389 q 977 670 925 412 l 1037 970 l 1162 970 l 1102 670 q 596 286 1030 310 l 539 0 l 414 0 l 471 286 q 119 670 47 310 l 179 970 l 304 970 l 244 670 q 492 389 193 412 z "},"Ϊ":{"ha":397,"x_min":39,"x_max":525,"o":"m 359 970 l 165 0 l 39 0 l 233 970 l 359 970 m 525 1227 l 502 1112 l 376 1112 l 399 1227 l 525 1227 m 274 1227 l 251 1112 l 125 1112 l 149 1227 l 274 1227 z "},"Ϋ":{"ha":882,"x_min":115,"x_max":962,"o":"m 115 970 l 249 970 l 427 463 l 812 970 l 962 970 l 466 339 l 398 0 l 273 0 l 340 339 l 115 970 m 768 1227 l 745 1112 l 619 1112 l 642 1227 l 768 1227 m 517 1227 l 494 1112 l 368 1112 l 391 1227 l 517 1227 z "},"ά":{"ha":928,"x_min":-27,"x_max":920,"o":"m 43 356 q 419 712 114 712 q 676 492 644 712 l 793 712 l 920 712 l 714 354 l 768 0 l 640 0 l 612 224 q 277 0 482 0 q 43 356 -27 0 m 169 359 q 297 102 117 102 q 589 359 456 102 q 399 610 558 610 q 169 359 219 610 m 562 970 l 724 970 l 529 808 l 418 808 l 562 970 z "},"έ":{"ha":627,"x_min":-30,"x_max":600,"o":"m 578 576 q 370 617 485 617 q 210 528 227 617 q 354 420 188 420 l 486 420 l 466 319 l 332 319 q 136 197 161 319 q 265 95 116 95 q 490 136 380 95 l 469 27 q 245 -7 360 -7 q 11 197 -30 -7 q 193 370 38 332 q 84 528 60 410 q 397 719 122 719 q 600 685 505 719 l 578 576 m 431 970 l 593 970 l 399 808 l 288 808 l 431 970 z "},"ή":{"ha":817,"x_min":5,"x_max":762,"o":"m 5 0 l 148 712 l 260 712 l 229 492 q 563 712 364 712 q 715 481 762 712 l 567 -258 l 442 -258 l 590 483 q 491 608 615 608 q 208 382 349 608 l 131 0 l 5 0 m 526 970 l 688 970 l 494 808 l 382 808 l 526 970 z "},"ί":{"ha":356,"x_min":19,"x_max":458,"o":"m 287 712 l 144 0 l 19 0 l 161 712 l 287 712 m 296 970 l 458 970 l 263 808 l 152 808 l 296 970 z "},"ΰ":{"ha":821,"x_min":3,"x_max":795,"o":"m 64 290 l 148 712 l 273 712 l 189 290 q 332 88 149 88 q 555 290 515 88 l 640 712 l 765 712 l 681 290 q 311 -14 620 -14 q 64 290 3 -14 m 795 970 l 772 854 l 646 854 l 669 970 l 795 970 m 347 970 l 324 854 l 199 854 l 222 970 l 347 970 m 469 970 l 631 970 l 436 808 l 325 808 l 469 970 z "},"α":{"ha":928,"x_min":-27,"x_max":920,"o":"m 43 356 q 419 712 114 712 q 676 492 644 712 l 793 712 l 920 712 l 714 354 l 768 0 l 640 0 l 612 224 q 277 0 482 0 q 43 356 -27 0 m 169 359 q 297 102 117 102 q 589 359 456 102 q 399 610 558 610 q 169 359 219 610 z "},"β":{"ha":811,"x_min":-43,"x_max":812,"o":"m -43 -245 l 124 591 q 534 970 199 970 q 767 742 812 970 q 553 522 732 564 q 716 258 764 496 q 383 -1 664 -1 q 227 39 291 -1 l 248 141 q 405 100 312 100 q 591 258 559 100 q 380 468 632 467 l 397 548 q 651 742 620 585 q 509 868 676 868 q 249 589 304 868 l 82 -245 l -43 -245 z "},"γ":{"ha":732,"x_min":70,"x_max":748,"o":"m 70 712 l 202 712 l 292 138 l 616 712 l 748 712 l 323 0 l 272 -258 l 146 -258 l 198 0 l 70 712 z "},"δ":{"ha":814,"x_min":-30,"x_max":775,"o":"m 723 366 q 304 -7 648 -7 q 43 359 -30 -7 q 462 705 113 705 q 222 868 367 789 l 243 970 l 775 970 l 755 868 l 418 868 q 723 366 772 654 m 597 363 q 428 610 646 610 q 166 359 216 610 q 326 95 113 95 q 597 363 543 95 z "},"ε":{"ha":627,"x_min":-30,"x_max":600,"o":"m 578 576 q 370 617 485 617 q 210 528 227 617 q 354 420 188 420 l 486 420 l 466 319 l 332 319 q 136 197 161 319 q 265 95 116 95 q 490 136 380 95 l 469 27 q 245 -7 360 -7 q 11 197 -30 -7 q 193 370 38 332 q 84 528 60 410 q 397 719 122 719 q 600 685 505 719 l 578 576 z "},"ζ":{"ha":680,"x_min":-28,"x_max":744,"o":"m 303 970 l 744 970 l 724 868 q 151 286 208 574 q 262 102 114 102 l 385 102 q 533 -50 564 102 q 273 -271 505 -189 l 244 -178 q 416 -51 399 -131 q 368 0 426 0 l 245 0 q 28 283 -28 0 q 559 868 89 587 l 283 868 l 303 970 z "},"η":{"ha":817,"x_min":5,"x_max":762,"o":"m 5 0 l 148 712 l 260 712 l 229 492 q 563 712 364 712 q 715 481 762 712 l 567 -258 l 442 -258 l 590 483 q 491 608 615 608 q 208 382 349 608 l 131 0 l 5 0 z "},"θ":{"ha":844,"x_min":-16,"x_max":862,"o":"m 209 454 q 349 95 146 95 q 625 454 545 95 l 209 454 m 644 556 q 505 875 690 875 q 231 556 312 875 l 644 556 m 82 484 q 525 977 180 977 q 764 484 862 977 q 328 -7 665 -7 q 82 484 -16 -7 z "},"ι":{"ha":356,"x_min":19,"x_max":287,"o":"m 287 712 l 144 0 l 19 0 l 161 712 l 287 712 z "},"κ":{"ha":804,"x_min":5,"x_max":800,"o":"m 800 712 l 409 375 l 673 0 l 513 0 l 288 345 l 303 420 l 641 712 l 800 712 m 273 712 l 131 0 l 5 0 l 148 712 l 273 712 z "},"λ":{"ha":760,"x_min":-69,"x_max":630,"o":"m 357 703 q 219 880 323 834 l 287 975 q 481 733 441 927 l 630 0 l 490 0 l 391 563 l 67 0 l -69 0 l 357 703 z "},"ν":{"ha":732,"x_min":73,"x_max":751,"o":"m 73 712 l 209 712 l 301 154 l 616 712 l 751 712 l 319 0 l 203 0 l 73 712 z "},"ξ":{"ha":690,"x_min":-12,"x_max":684,"o":"m 519 970 l 684 970 l 664 868 l 499 868 q 326 757 349 868 q 451 625 300 625 l 608 625 l 588 524 l 437 524 q 168 286 215 524 q 279 102 131 102 l 401 102 q 550 -50 581 102 q 290 -271 522 -189 l 261 -178 q 433 -51 416 -131 q 385 0 443 0 l 262 0 q 45 283 -12 0 q 286 575 90 508 q 201 761 172 612 q 519 970 243 970 z "},"ο":{"ha":814,"x_min":-27,"x_max":792,"o":"m 169 359 q 331 102 117 102 q 596 359 545 102 q 433 610 646 610 q 169 359 219 610 m 43 356 q 453 712 114 712 q 721 356 792 712 q 311 1 650 1 q 43 356 -27 1 z "},"ρ":{"ha":822,"x_min":-56,"x_max":800,"o":"m 151 152 q 321 109 216 109 q 609 373 556 109 q 442 608 656 608 q 195 373 242 608 l 151 152 m 70 373 q 465 712 138 712 q 732 373 800 712 q 300 0 658 0 q 129 41 201 0 l 69 -258 l -56 -258 l 70 373 z "},"ς":{"ha":673,"x_min":-5,"x_max":659,"o":"m 639 576 q 479 610 570 610 q 167 367 216 610 q 267 165 135 209 l 367 135 q 529 -71 560 85 q 193 -258 492 -258 l 214 -156 q 404 -74 388 -156 q 328 21 417 -9 l 201 62 q 44 364 -5 116 q 500 712 114 712 q 659 678 590 712 l 639 576 z "},"σ":{"ha":866,"x_min":-27,"x_max":878,"o":"m 169 359 q 331 102 117 102 q 596 359 545 102 q 439 610 646 610 q 169 359 219 610 m 43 356 q 460 712 114 712 l 878 712 l 858 610 l 681 610 q 721 356 754 523 q 311 1 650 1 q 43 356 -27 1 z "},"τ":{"ha":576,"x_min":26,"x_max":571,"o":"m 46 712 l 571 712 l 551 610 l 337 610 l 265 251 q 382 101 235 101 q 401 102 391 101 l 381 0 q 328 -3 353 -3 q 140 251 89 -3 l 212 610 l 26 610 l 46 712 z "},"υ":{"ha":821,"x_min":3,"x_max":765,"o":"m 64 290 l 148 712 l 273 712 l 189 290 q 332 88 149 88 q 555 290 515 88 l 640 712 l 765 712 l 681 290 q 311 -14 620 -14 q 64 290 3 -14 z "},"φ":{"ha":1021,"x_min":-28,"x_max":999,"o":"m 236 712 l 375 712 q 172 373 209 559 q 362 88 117 102 l 433 444 q 734 712 487 712 q 931 373 999 712 q 467 -14 857 0 l 418 -258 l 293 -258 l 342 -14 q 46 373 -28 0 q 236 712 83 559 m 488 88 q 806 373 751 102 q 715 610 853 610 q 559 444 592 610 l 488 88 z "},"χ":{"ha":766,"x_min":-121,"x_max":785,"o":"m 263 227 l 73 712 l 212 712 l 356 345 l 646 712 l 785 712 l 402 227 l 591 -258 l 452 -258 l 309 110 l 18 -258 l -121 -258 l 263 227 z "},"ψ":{"ha":1092,"x_min":9,"x_max":1036,"o":"m 406 98 l 529 712 l 655 712 l 532 98 q 842 365 793 123 l 911 712 l 1036 712 l 967 365 q 512 -5 898 20 l 461 -258 l 335 -258 l 386 -5 q 79 365 9 20 l 148 712 l 273 712 l 204 365 q 406 98 155 123 z "},"ω":{"ha":1136,"x_min":-15,"x_max":1070,"o":"m 216 712 l 341 712 q 185 373 222 559 q 277 102 131 102 q 521 559 429 102 l 646 559 q 707 102 555 102 q 907 373 853 102 q 887 712 945 559 l 1013 712 q 1033 373 1070 559 q 687 0 958 0 q 513 216 528 0 q 256 0 416 0 q 60 373 -15 0 q 216 712 97 559 z "},"ϊ":{"ha":356,"x_min":19,"x_max":464,"o":"m 287 712 l 144 0 l 19 0 l 161 712 l 287 712 m 464 970 l 441 854 l 315 854 l 338 970 l 464 970 m 213 970 l 190 854 l 64 854 l 87 970 l 213 970 z "},"ϋ":{"ha":821,"x_min":3,"x_max":765,"o":"m 64 290 l 148 712 l 273 712 l 189 290 q 332 88 149 88 q 555 290 515 88 l 640 712 l 765 712 l 681 290 q 311 -14 620 -14 q 64 290 3 -14 m 696 970 l 673 854 l 548 854 l 571 970 l 696 970 m 446 970 l 422 854 l 297 854 l 320 970 l 446 970 z "},"ό":{"ha":814,"x_min":-27,"x_max":792,"o":"m 169 359 q 331 102 117 102 q 596 359 545 102 q 433 610 646 610 q 169 359 219 610 m 43 356 q 453 712 114 712 q 721 356 792 712 q 311 1 650 1 q 43 356 -27 1 m 525 970 l 687 970 l 492 808 l 381 808 l 525 970 z "},"ύ":{"ha":821,"x_min":3,"x_max":765,"o":"m 64 290 l 148 712 l 273 712 l 189 290 q 332 88 149 88 q 555 290 515 88 l 640 712 l 765 712 l 681 290 q 311 -14 620 -14 q 64 290 3 -14 m 528 970 l 690 970 l 496 808 l 385 808 l 528 970 z "},"ώ":{"ha":1136,"x_min":-15,"x_max":1070,"o":"m 216 712 l 341 712 q 185 373 222 559 q 277 102 131 102 q 521 559 429 102 l 646 559 q 707 102 555 102 q 907 373 853 102 q 887 712 945 559 l 1013 712 q 1033 373 1070 559 q 687 0 958 0 q 513 216 528 0 q 256 0 416 0 q 60 373 -15 0 q 216 712 97 559 m 686 970 l 848 970 l 653 808 l 542 808 l 686 970 z "},"":{"ha":1152,"x_min":-119,"x_max":1105,"o":"m 1082 712 l 940 0 l 814 0 l 937 610 l 658 610 l 547 54 q 376 -270 503 -161 l 286 -199 q 421 54 389 -107 l 532 610 l 253 610 l 142 54 q -28 -270 98 -161 l -119 -199 q 16 54 -16 -107 l 156 753 q 453 1012 208 1012 q 566 985 513 1012 l 545 883 q 432 910 497 910 q 283 766 313 910 l 273 712 l 553 712 l 559 747 q 913 1019 614 1019 q 1105 978 1008 1019 l 1084 876 q 892 917 991 917 q 687 759 719 917 l 678 712 l 1082 712 z "},"":{"ha":1154,"x_min":-119,"x_max":1143,"o":"m 865 712 l 844 610 l 658 610 l 547 54 q 376 -270 503 -161 l 286 -199 q 421 54 389 -107 l 532 610 l 253 610 l 142 54 q -28 -270 98 -161 l -119 -199 q 16 54 -16 -107 l 156 753 q 453 1012 208 1012 q 566 985 513 1012 l 545 883 q 432 910 497 910 q 283 766 313 910 l 273 712 l 553 712 l 559 747 q 934 1019 614 1019 q 1143 970 1042 1019 l 949 0 l 823 0 l 1004 908 q 913 917 956 917 q 686 752 719 917 l 678 712 l 865 712 z "},"":{"ha":853,"x_min":-119,"x_max":1031,"o":"m 892 712 l 871 610 l 658 610 l 547 54 q 376 -270 503 -161 l 286 -199 q 421 54 389 -107 l 532 610 l 253 610 l 142 54 q -28 -270 98 -161 l -119 -199 q 16 54 -16 -107 l 156 753 q 453 1012 208 1012 q 566 985 513 1012 l 545 883 q 432 910 497 910 q 283 766 313 910 l 273 712 l 553 712 l 561 753 q 892 1012 612 1012 q 1031 985 972 1012 l 1011 883 q 871 910 956 910 q 687 759 718 910 l 678 712 l 892 712 z "},"":{"ha":740,"x_min":-119,"x_max":700,"o":"m 155 747 q 509 1019 209 1019 q 700 978 603 1019 l 680 876 q 488 917 587 917 q 282 759 314 917 l 273 712 l 671 712 l 539 54 q 369 -270 496 -161 l 278 -199 q 414 54 381 -107 l 525 610 l 253 610 l 142 54 q -28 -270 98 -161 l -119 -199 q 16 54 -16 -107 l 155 747 z "},"":{"ha":1152,"x_min":-119,"x_max":1105,"o":"m 553 712 l 559 747 q 913 1019 614 1019 q 1105 978 1008 1019 l 1084 876 q 892 917 991 917 q 687 759 719 917 l 678 712 l 1082 712 l 951 54 q 781 -270 907 -161 l 690 -199 q 825 54 793 -107 l 937 610 l 658 610 l 547 54 q 376 -270 503 -161 l 286 -199 q 421 54 389 -107 l 532 610 l 253 610 l 142 54 q -28 -270 98 -161 l -119 -199 q 16 54 -16 -107 l 156 753 q 453 1012 208 1012 q 566 985 513 1012 l 545 883 q 432 910 497 910 q 283 766 313 910 l 273 712 l 553 712 z "},"":{"ha":1192,"x_min":-119,"x_max":1170,"o":"m 568 124 q 687 104 599 104 q 980 382 924 104 q 884 604 1025 604 q 630 431 739 604 l 568 124 m 273 712 l 460 712 l 439 610 l 253 610 l 142 54 q -28 -270 98 -161 l -119 -199 q 16 54 -16 -107 l 155 747 q 529 1019 209 1019 q 738 970 637 1019 l 652 543 q 927 712 767 712 q 1104 384 1170 712 q 673 0 1027 0 q 424 29 519 0 l 600 908 q 508 917 551 917 q 281 752 314 917 l 273 712 z "},"":{"ha":1596,"x_min":-119,"x_max":1575,"o":"m 973 124 q 1092 104 1004 104 q 1385 382 1329 104 q 1289 604 1430 604 q 1035 431 1144 604 l 973 124 m 865 712 l 844 610 l 658 610 l 547 54 q 376 -270 503 -161 l 286 -199 q 421 54 389 -107 l 532 610 l 253 610 l 142 54 q -28 -270 98 -161 l -119 -199 q 16 54 -16 -107 l 156 753 q 453 1012 208 1012 q 566 985 513 1012 l 545 883 q 432 910 497 910 q 283 766 313 910 l 273 712 l 553 712 l 559 747 q 934 1019 614 1019 q 1143 970 1042 1019 l 1057 543 q 1332 712 1172 712 q 1509 384 1575 712 q 1078 0 1432 0 q 829 29 924 0 l 1004 908 q 913 917 956 917 q 686 752 719 917 l 678 712 l 865 712 z "},"":{"ha":1230,"x_min":-119,"x_max":1175,"o":"m 273 712 l 460 712 l 439 610 l 253 610 l 142 54 q -28 -270 98 -161 l -119 -199 q 16 54 -16 -107 l 155 747 q 529 1019 209 1019 q 738 970 637 1019 l 645 506 q 976 712 777 712 q 1128 481 1175 712 l 1032 0 l 907 0 l 1003 483 q 904 608 1028 608 q 620 382 762 608 l 544 0 l 418 0 l 600 908 q 508 917 551 917 q 281 752 314 917 l 273 712 z "},"":{"ha":1635,"x_min":-119,"x_max":1579,"o":"m 865 712 l 844 610 l 658 610 l 547 54 q 376 -270 503 -161 l 286 -199 q 421 54 389 -107 l 532 610 l 253 610 l 142 54 q -28 -270 98 -161 l -119 -199 q 16 54 -16 -107 l 156 753 q 453 1012 208 1012 q 566 985 513 1012 l 545 883 q 432 910 497 910 q 283 766 313 910 l 273 712 l 553 712 l 559 747 q 934 1019 614 1019 q 1143 970 1042 1019 l 1050 506 q 1381 712 1182 712 q 1533 481 1579 712 l 1437 0 l 1312 0 l 1408 483 q 1309 608 1433 608 q 1025 382 1167 608 l 949 0 l 823 0 l 1004 908 q 913 917 956 917 q 686 752 719 917 l 678 712 l 865 712 z "},"":{"ha":1211,"x_min":-119,"x_max":1192,"o":"m 273 712 l 460 712 l 439 610 l 253 610 l 142 54 q -28 -270 98 -161 l -119 -199 q 16 54 -16 -107 l 155 747 q 529 1019 209 1019 q 738 970 637 1019 l 648 521 q 973 712 790 712 q 1152 513 1192 712 q 894 271 1122 364 l 1074 0 l 915 0 l 761 261 l 773 324 q 1025 507 999 379 q 937 610 1046 610 q 626 411 779 610 l 544 0 l 418 0 l 600 908 q 508 917 551 917 q 281 752 314 917 l 273 712 z "},"":{"ha":1615,"x_min":-119,"x_max":1596,"o":"m 865 712 l 844 610 l 658 610 l 547 54 q 376 -270 503 -161 l 286 -199 q 421 54 389 -107 l 532 610 l 253 610 l 142 54 q -28 -270 98 -161 l -119 -199 q 16 54 -16 -107 l 156 753 q 453 1012 208 1012 q 566 985 513 1012 l 545 883 q 432 910 497 910 q 283 766 313 910 l 273 712 l 553 712 l 559 747 q 934 1019 614 1019 q 1143 970 1042 1019 l 1053 521 q 1378 712 1195 712 q 1556 513 1596 712 q 1299 271 1527 364 l 1478 0 l 1320 0 l 1166 261 l 1178 324 q 1430 507 1404 379 q 1342 610 1451 610 q 1031 411 1184 610 l 949 0 l 823 0 l 1004 908 q 913 917 956 917 q 686 752 719 917 l 678 712 l 865 712 z "},"":{"ha":865,"x_min":-20,"x_max":834,"o":"m 186 359 q 359 95 133 95 q 630 359 577 95 q 463 617 682 617 q 186 359 237 617 m 53 355 q 484 719 125 719 q 762 355 834 719 q 338 -7 689 -7 q 53 355 -20 -7 z "},"":{"ha":579,"x_min":-18,"x_max":459,"o":"m 172 102 l 268 584 l 98 584 l 112 651 l 419 712 l 297 102 l 459 102 l 439 0 l -18 0 l 2 102 l 172 102 z "},"":{"ha":746,"x_min":-18,"x_max":702,"o":"m -18 0 l 2 102 q 532 495 498 330 q 373 617 556 617 q 90 543 237 617 l 112 651 q 393 719 258 719 q 657 495 702 719 q 208 102 618 298 l 612 102 l 592 0 l -18 0 z "},"":{"ha":753,"x_min":-58,"x_max":701,"o":"m 106 671 q 372 712 250 712 q 649 454 701 712 q 484 268 624 328 q 574 81 600 210 q 191 -190 520 -190 q -58 -149 69 -190 l -37 -41 q 212 -88 90 -88 q 449 81 415 -88 q 305 217 476 217 l 117 217 l 137 319 l 323 319 q 524 454 496 319 q 351 610 555 610 q 84 563 229 610 l 106 671 z "},"":{"ha":790,"x_min":-52,"x_max":667,"o":"m 515 -190 l 389 -190 l 431 20 l -52 20 l -31 121 l 456 711 l 588 711 l 100 121 l 452 121 l 517 446 l 642 446 l 577 121 l 667 70 l 657 20 l 557 20 l 515 -190 z "},"":{"ha":777,"x_min":-22,"x_max":703,"o":"m 185 712 l 703 712 l 683 610 l 271 610 l 195 338 q 344 353 277 353 q 630 88 683 353 q 193 -197 573 -197 q -22 -156 71 -197 l -1 -47 q 220 -95 92 -95 q 505 88 468 -95 q 323 251 537 251 q 52 217 191 251 l 185 712 z "},"":{"ha":858,"x_min":-16,"x_max":806,"o":"m 56 353 q 618 931 124 696 l 665 845 q 277 581 410 726 q 464 610 359 610 q 746 312 806 610 q 328 -7 682 -7 q 56 353 -16 -7 m 175 357 q 354 95 123 95 q 623 312 580 95 q 437 509 663 509 q 218 476 313 509 q 175 357 193 449 z "},"":{"ha":719,"x_min":-35,"x_max":704,"o":"m 73 712 l 704 712 l 684 610 l 109 -190 l -35 -190 l 554 610 l 53 610 l 73 712 z "},"":{"ha":848,"x_min":-20,"x_max":829,"o":"m 33 254 q 248 478 62 405 q 146 684 117 543 q 510 911 191 911 q 783 684 829 911 q 595 478 755 543 q 724 254 754 405 q 326 -7 672 -7 q 33 254 -20 -7 m 435 522 q 658 684 625 522 q 484 807 682 807 q 271 684 296 807 q 435 522 239 522 m 350 95 q 600 256 567 95 q 406 420 632 420 q 159 256 191 420 q 350 95 126 95 z "},"":{"ha":858,"x_min":2,"x_max":824,"o":"m 752 358 q 190 -220 684 15 l 142 -134 q 530 130 398 -15 q 344 100 449 100 q 62 399 2 100 q 480 718 125 718 q 752 358 824 718 m 633 354 q 454 616 685 616 q 184 399 228 616 q 370 202 145 202 q 590 235 495 202 q 633 354 614 262 z "},"":{"ha":1045,"x_min":19,"x_max":1039,"o":"m 19 0 l 142 617 q 667 983 216 983 q 1039 929 825 983 l 1021 841 l 667 547 q 938 285 989 544 q 546 -1 881 -1 q 330 46 427 -1 l 352 155 q 568 100 448 100 q 806 285 769 100 q 606 456 840 455 l 513 456 l 531 543 l 890 854 q 646 882 771 882 q 269 624 321 882 l 144 0 l 19 0 z "}}}
